<svg width="43" height="38" viewBox="0 0 43 38" fill="none" xmlns="http://www.w3.org/2000/svg">
<path d="M9.6105 36.154L0.3705 20.154C-0.1235 19.299 -0.1235 18.244 0.3705 17.389L9.6105 1.382C10.1035 0.528 11.0145 0.002 12.0105 0H30.5035C31.4865 0.005 32.3935 0.53 32.8835 1.382L42.1335 17.39C42.6275 18.245 42.6275 19.3 42.1335 20.155L32.8735 36.154C32.3805 37.008 31.4695 37.534 30.4735 37.536H11.9835C10.9995 37.533 10.0915 37.006 9.5985 36.154H9.6105Z" fill="#4386FA"/>
<path d="M9.6105 36.154L0.3705 20.154C-0.1235 19.299 -0.1235 18.244 0.3705 17.389L9.6105 1.382C10.1035 0.528 11.0145 0.002 12.0105 0H30.5035C31.4865 0.005 32.3935 0.53 32.8835 1.382L42.1335 17.39C42.6275 18.245 42.6275 19.3 42.1335 20.155L32.8735 36.154C32.3805 37.008 31.4695 37.534 30.4735 37.536H11.9835C10.9995 37.533 10.0915 37.006 9.5985 36.154H9.6105Z" fill="#4386FA"/>
<path opacity="0.1" d="M27.0156 13.5981C27.0156 13.5981 29.5856 19.7601 26.0826 23.2541C22.5796 26.7481 16.2026 24.5111 16.2026 24.5111L29.1756 37.5341H30.4926C31.4786 37.5321 32.3896 37.0061 32.8926 36.1521L39.0106 25.5581L27.0156 13.5981Z" fill="black"/>
<path d="M30.0506 26.219L27.2106 23.392C27.1801 23.3603 27.1451 23.3333 27.1066 23.312C28.3066 21.7572 28.8689 19.8035 28.6791 17.8487C28.4892 15.8939 27.5615 14.085 26.0847 12.7902C24.6079 11.4954 22.6931 10.8121 20.7303 10.8796C18.7674 10.947 16.9041 11.7599 15.5196 13.153C12.6466 16.048 12.5196 20.686 15.2316 23.723C16.5391 25.1887 18.3556 26.1017 20.312 26.2764C22.2684 26.4512 24.2179 25.8747 25.7646 24.664C25.7852 24.7004 25.8104 24.734 25.8396 24.764L28.6796 27.604C28.7208 27.6452 28.7697 27.6778 28.8236 27.7C28.8775 27.7221 28.9353 27.7334 28.9936 27.733C29.1111 27.7326 29.2238 27.6863 29.3076 27.604L30.0606 26.851C30.1018 26.8098 30.1344 26.7608 30.1566 26.7069C30.1787 26.653 30.19 26.5953 30.1896 26.537C30.1892 26.4195 30.1429 26.3068 30.0606 26.223L30.0506 26.219ZM21.0036 24.383C19.8548 24.3827 18.732 24.0419 17.7769 23.4036C16.8218 22.7653 16.0773 21.8582 15.6376 20.797C14.7376 18.627 15.2356 16.127 16.8976 14.467C17.7102 13.6553 18.7451 13.1027 19.8716 12.8789C20.9981 12.6551 22.1657 12.7703 23.2268 13.2098C24.2879 13.6493 25.195 14.3934 25.8334 15.3481C26.4718 16.3029 26.8129 17.4255 26.8136 18.574C26.8116 21.781 24.2136 24.38 21.0056 24.382L21.0036 24.383ZM17.2916 18.264V20.664C17.6616 21.317 18.1966 21.86 18.8436 22.241V18.259L17.2916 18.264ZM20.1916 16.274V22.761C20.7046 22.855 21.2316 22.855 21.7436 22.761V16.264L20.1916 16.274ZM24.6836 20.661V19.241H23.1316V22.235C23.7776 21.855 24.3116 21.315 24.6836 20.663V20.661Z" fill="white"/>
</svg>
