<svg xmlns="http://www.w3.org/2000/svg" width="60" height="60">
    <path d="M14.612 47.39l-9.24-16c-.494-.855-.494-1.91 0-2.765l9.24-16.007c.493-.854 1.404-1.38 2.4-1.382h18.493c.983.005 1.89.53 2.38 1.382l9.25 16.008c.494.855.494 1.91 0 2.765L37.875 47.39c-.493.854-1.404 1.38-2.4 1.382h-18.49c-.984-.003-1.892-.53-2.385-1.382z" fill="#4386fa" />
    <path d="M32.017 24.834s2.57 6.162-.933 9.656-9.88 1.257-9.88 1.257L34.177 48.77h1.317c.986-.002 1.897-.528 2.4-1.382l6.118-10.594z" opacity=".1" />
    <path d="M35.052 37.455l-2.84-2.827a.44.44 0 0 0-.104-.08 7.72 7.72 0 0 0-11.587-10.159c-2.873 2.895-3 7.533-.288 10.57a7.73 7.73 0 0 0 10.533.941.49.49 0 0 0 .075.1l2.84 2.84a.44.44 0 0 0 .314.129.45.45 0 0 0 .314-.129l.753-.753a.44.44 0 0 0 .129-.314.45.45 0 0 0-.129-.314zm-9.047-1.836a5.81 5.81 0 0 1-5.366-3.586c-.9-2.17-.402-4.67 1.26-6.33a5.81 5.81 0 0 1 9.916 4.107c-.002 3.207-2.6 5.806-5.808 5.808zM22.293 29.5v2.4c.37.653.905 1.196 1.552 1.577v-3.982zm2.9-1.99v6.487c.513.094 1.04.094 1.552 0V27.5zm4.492 4.387v-1.42h-1.552v2.994c.646-.38 1.18-.92 1.552-1.572z" fill="#fff" />
</svg>