<svg width="1354" height="464" viewBox="0 0 1354 464" fill="none" xmlns="http://www.w3.org/2000/svg">
<path d="M1353.18 163.236L888.22 163.236V298.074L888.341 298.074C888.341 321.77 920.434 340.838 984.62 378.976C1048.81 417.114 1080.9 436.183 1120.78 436.183C1160.66 436.183 1192.75 417.114 1256.94 378.976C1321.13 340.838 1353.22 321.769 1353.22 298.074C1353.22 297.573 1353.21 297.075 1353.18 296.579V163.236Z" fill="url(#paint0_linear_203_545)"/>
<path d="M984.524 83.425C1048.73 45.2921 1080.83 26.2256 1120.72 26.2256C1160.61 26.2256 1192.71 45.292 1256.92 83.425C1321.12 121.558 1353.22 140.624 1353.22 164.317C1353.22 188.01 1321.12 207.076 1256.92 245.209C1192.71 283.342 1160.61 302.409 1120.72 302.409C1080.83 302.409 1048.73 283.342 984.524 245.209C920.321 207.076 888.22 188.01 888.22 164.317C888.22 140.624 920.321 121.558 984.524 83.425Z" fill="url(#paint1_linear_203_545)"/>
<path d="M1017.6 95.9529C1021.18 93.815 1024.96 92.3283 1028.91 91.4928C1032.91 90.6819 1036.75 90.5099 1040.42 90.9768C1044.13 91.4683 1047.37 92.5372 1050.13 94.1836C1052.52 95.6089 1054.11 97.1201 1054.89 98.7174C1055.68 100.315 1055.74 101.875 1055.08 103.399L1059.9 100.524L1072.02 107.748L1037.33 128.427L1025.2 121.202L1030.03 118.327C1027.47 118.72 1024.83 118.671 1022.11 118.179C1019.43 117.713 1016.92 116.779 1014.57 115.378C1011.8 113.732 1010.01 111.803 1009.18 109.591C1008.4 107.404 1008.69 105.119 1010.05 102.735C1011.49 100.352 1014.01 98.0908 1017.6 95.9529ZM1042.58 110.844C1044.81 109.517 1045.94 108.104 1045.99 106.605C1046.07 105.131 1045.22 103.866 1043.45 102.809C1041.64 101.728 1039.49 101.212 1037.02 101.261C1034.58 101.285 1032.23 101.973 1029.97 103.325C1027.74 104.652 1026.56 106.065 1026.44 107.564C1026.36 109.038 1027.22 110.316 1029.04 111.397C1030.81 112.454 1032.94 112.958 1035.41 112.909C1037.92 112.884 1040.32 112.196 1042.58 110.844ZM1059.63 121.006C1063.22 118.868 1067.1 117.443 1071.26 116.73C1075.43 116.018 1079.55 116.018 1083.63 116.73C1087.76 117.468 1091.53 118.856 1094.95 120.896C1099.36 123.525 1101.86 126.461 1102.43 129.705C1103.05 132.924 1101.63 136.082 1098.17 139.178L1085.3 131.511C1086.83 129.717 1086.52 128.182 1084.37 126.904C1082.85 125.995 1080.99 125.651 1078.81 125.872C1076.71 126.093 1074.44 126.928 1072 128.378C1069.57 129.828 1068.15 131.192 1067.74 132.47C1067.37 133.772 1067.94 134.878 1069.47 135.787C1071.65 137.089 1074.23 137.274 1077.2 136.34L1090.06 144.007C1084.91 146.046 1079.61 146.894 1074.17 146.55C1068.73 146.206 1063.8 144.719 1059.39 142.09C1055.96 140.051 1053.64 137.802 1052.4 135.345C1051.2 132.912 1051.2 130.455 1052.4 127.973C1053.59 125.491 1056.01 123.169 1059.63 121.006ZM1139.63 147.672C1143.59 150.031 1145.38 152.697 1145.01 155.67C1144.72 158.644 1142.31 161.482 1137.78 164.185L1117.55 176.238L1105.43 169.014L1124.05 157.919C1126.03 156.739 1127.06 155.51 1127.14 154.233C1127.26 152.93 1126.46 151.763 1124.73 150.731C1122.91 149.65 1120.91 149.146 1118.73 149.22C1116.58 149.269 1114.52 149.883 1112.54 151.063L1093.93 162.158L1081.8 154.933L1127.57 127.657L1139.69 134.881L1123.67 144.428C1126.31 144.133 1129.01 144.244 1131.78 144.76C1134.62 145.276 1137.24 146.246 1139.63 147.672ZM1168.24 161.256C1166.1 159.978 1164.94 158.602 1164.78 157.128C1164.69 155.653 1165.54 154.388 1167.31 153.331C1169.13 152.25 1171.27 151.734 1173.74 151.783C1176.26 151.857 1178.59 152.533 1180.73 153.81C1182.84 155.064 1183.93 156.428 1184.01 157.902C1184.14 159.401 1183.29 160.691 1181.48 161.772C1179.7 162.829 1177.56 163.32 1175.04 163.247C1172.61 163.173 1170.34 162.509 1168.24 161.256ZM1171.02 166.748L1136.33 187.427L1124.2 180.202L1158.9 159.524L1171.02 166.748ZM1201.12 171.489L1155.35 198.766L1143.23 191.541L1189 164.265L1201.12 171.489ZM1206.29 183.934C1204.15 182.656 1202.99 181.28 1202.83 179.805C1202.75 178.331 1203.59 177.065 1205.36 176.009C1207.18 174.928 1209.32 174.412 1211.8 174.461C1214.31 174.534 1216.64 175.21 1218.79 176.488C1220.89 177.741 1221.98 179.105 1222.06 180.579C1222.19 182.078 1221.34 183.369 1219.53 184.45C1217.75 185.506 1215.61 185.998 1213.1 185.924C1210.66 185.85 1208.39 185.187 1206.29 183.934ZM1209.08 189.426L1174.38 210.104L1162.26 202.88L1196.95 182.201L1209.08 189.426ZM1196.99 224.097C1193.53 222.033 1191.14 219.748 1189.82 217.241C1188.54 214.759 1188.46 212.253 1189.57 209.722C1190.68 207.191 1193.05 204.844 1196.68 202.681C1200.27 200.544 1204.19 199.143 1208.43 198.479C1212.72 197.84 1216.95 197.902 1221.11 198.664C1225.32 199.45 1229.15 200.875 1232.62 202.939C1236.08 205.004 1238.45 207.277 1239.73 209.759C1241.05 212.265 1241.15 214.784 1240.04 217.315C1238.97 219.87 1236.64 222.217 1233.05 224.355C1229.46 226.493 1225.5 227.894 1221.17 228.557C1216.93 229.221 1212.7 229.159 1208.49 228.373C1204.29 227.586 1200.45 226.161 1196.99 224.097ZM1207.51 217.831C1209.2 218.838 1211.22 219.305 1213.57 219.232C1216 219.158 1218.39 218.421 1220.74 217.02C1223.09 215.619 1224.31 214.206 1224.39 212.781C1224.51 211.38 1223.75 210.189 1222.1 209.206C1220.45 208.223 1218.45 207.768 1216.1 207.842C1213.75 207.916 1211.4 208.653 1209.05 210.053C1206.66 211.479 1205.38 212.879 1205.22 214.255C1205.05 215.632 1205.81 216.823 1207.51 217.831Z" fill="white"/>
<path d="M98.2345 414.197L5.44564 253.476C1.87814 247.297 0 240.288 0 233.153C0 226.018 1.87814 219.009 5.44564 212.83L98.2345 52.1123C101.803 45.9323 106.935 40.8004 113.115 37.2326C119.295 33.6648 126.305 31.7867 133.441 31.7871L319.019 31.7871C326.154 31.7873 333.164 33.6657 339.344 37.2335C345.523 40.8013 350.654 45.9328 354.222 52.1123L447.011 212.83C450.579 219.009 452.458 226.019 452.458 233.155C452.458 240.291 450.579 247.3 447.011 253.48L354.222 414.197C350.654 420.376 345.522 425.507 339.343 429.074C333.164 432.641 326.154 434.519 319.019 434.519H133.441C126.305 434.52 119.295 432.642 113.114 429.074C106.934 425.506 101.802 420.374 98.2345 414.194V414.197Z" fill="url(#paint2_linear_203_545)"/>
<path opacity="0.07" d="M427.225 310.227L290.768 173.762L232.001 158.035L179.216 177.653L158.831 230.764L175.222 289.898L319.93 434.606L350.637 433.242L427.225 310.227Z" fill="black"/>
<path d="M232.001 148.77C186.72 148.77 150.011 185.479 150.011 230.763C150.011 276.044 186.72 312.753 232.001 312.753C277.282 312.753 313.988 276.044 313.988 230.763C313.988 185.479 277.279 148.77 232.001 148.77ZM232.001 292.972C197.643 292.972 169.789 265.118 169.789 230.76C169.789 196.401 197.643 168.55 232.001 168.55C266.36 168.55 294.214 196.405 294.214 230.763C294.214 265.121 266.36 292.976 232.001 292.976" fill="white"/>
<path d="M193.083 227.596V253.082C196.854 259.556 202.174 264.991 208.565 268.9V227.596H193.083ZM223.783 206.111V274.726C226.416 275.21 229.11 275.503 231.878 275.503C234.401 275.503 236.862 275.238 239.276 274.835V206.111H223.783ZM255.918 238.186V268.451C262.411 264.322 267.743 258.604 271.407 251.838V238.19L255.918 238.186ZM291.001 281.265L282.507 289.766C281.787 290.487 281.383 291.464 281.383 292.483C281.383 293.501 281.787 294.478 282.507 295.199L314.727 327.408C315.448 328.128 316.425 328.532 317.443 328.532C318.462 328.532 319.439 328.128 320.16 327.408L328.654 318.918C329.369 318.195 329.77 317.22 329.77 316.203C329.77 315.186 329.369 314.211 328.654 313.488L296.43 281.265C295.709 280.548 294.733 280.146 293.716 280.146C292.699 280.146 291.723 280.548 291.001 281.265Z" fill="white"/>
<path d="M532 240.5L668.5 190.704V290.296L532 240.5Z" fill="#939395"/>
<path d="M826 241L689.5 291.229V190.771L826 241Z" fill="#939395"/>
<defs>
<linearGradient id="paint0_linear_203_545" x1="1353.22" y1="322.08" x2="888.22" y2="322.08" gradientUnits="userSpaceOnUse">
<stop stop-color="#9E82FF"/>
<stop offset="0.398949" stop-color="#7C9EFF"/>
<stop offset="0.607454" stop-color="#3E6BEC"/>
<stop offset="1" stop-color="#6C93FF"/>
</linearGradient>
<linearGradient id="paint1_linear_203_545" x1="887.944" y1="26.3891" x2="907" y2="330.514" gradientUnits="userSpaceOnUse">
<stop stop-color="#88A7FF"/>
<stop offset="1" stop-color="#A3BBFF"/>
</linearGradient>
<linearGradient id="paint2_linear_203_545" x1="226.23" y1="31.7906" x2="226.23" y2="433.893" gradientUnits="userSpaceOnUse">
<stop stop-color="#4387FD"/>
<stop offset="1" stop-color="#4683EA"/>
</linearGradient>
</defs>
</svg>
