<svg id="e9psjZIAmTH1" xmlns="http://www.w3.org/2000/svg" xmlns:xlink="http://www.w3.org/1999/xlink" viewBox="0 0 1000 1000" shape-rendering="geometricPrecision" text-rendering="geometricPrecision"><style><![CDATA[#e9psjZIAmTH63_to {animation: e9psjZIAmTH63_to__to 2000ms linear infinite normal forwards}@keyframes e9psjZIAmTH63_to__to { 0% {transform: translate(514.778651px,592.137009px)} 50% {transform: translate(514.778651px,552.137009px)} 100% {transform: translate(514.778651px,591.997009px)}}]]></style><defs><linearGradient id="e9psjZIAmTH64-fill" x1="717.551" y1="585.118" x2="282" y2="585.118" spreadMethod="pad" gradientUnits="userSpaceOnUse" gradientTransform="translate(0 0)"><stop id="e9psjZIAmTH64-fill-0" offset="0%" stop-color="#9e82ff"/><stop id="e9psjZIAmTH64-fill-1" offset="39.8949%" stop-color="#7c9eff"/><stop id="e9psjZIAmTH64-fill-2" offset="60.7454%" stop-color="#3e6bec"/><stop id="e9psjZIAmTH64-fill-3" offset="100%" stop-color="#6c93ff"/></linearGradient><linearGradient id="e9psjZIAmTH65-fill" x1="281.742" y1="308.153" x2="299.591" y2="593.018" spreadMethod="pad" gradientUnits="userSpaceOnUse" gradientTransform="translate(0 0)"><stop id="e9psjZIAmTH65-fill-0" offset="0%" stop-color="#88a7ff"/><stop id="e9psjZIAmTH65-fill-1" offset="100%" stop-color="#a3bbff"/></linearGradient></defs><g transform="translate(-1.777149 5.000016)" clip-path="url(#e9psjZIAmTH61)"><g><g><rect width="1000" height="171.551" rx="20" ry="20" transform="translate(0-62)" fill="#f2f2f2"/><rect width="999" height="170.551" rx="19.5" ry="19.5" transform="translate(.5-61.5)" fill="none" stroke="#bfbfbf"/></g><path d="M56.1906,-3.28461c0,2.048-.48,3.92-1.44,5.616-.928,1.664-2.352,3.008-4.272,4.032-1.888.992-4.208,1.488-6.96,1.488h-4.656v11.42401h-9.408v-33.84h14.064c2.72,0,5.024.48,6.912,1.44c1.92.96,3.36,2.288,4.32,3.98399s1.44,3.648,1.44,5.856ZM42.6066,0.363389c2.656,0,3.984-1.216,3.984-3.647999c0-2.464-1.328-3.696-3.984-3.696h-3.744v7.343999h3.744ZM69.3782,-2.90061c1.056-1.536,2.336-2.752,3.84-3.648s3.12-1.344,4.848-1.344v10.032h-2.64c-2.048,0-3.568.4-4.56,1.2s-1.488,2.192-1.488,4.176v11.76001h-9.408v-26.92801h9.408v4.752ZM93.967,19.6114c-2.688,0-5.104-.56-7.248-1.68-2.112-1.12-3.776-2.72-4.992-4.8s-1.824-4.52801-1.824-7.34401c0-2.784.608-5.216001,1.824-7.296c1.248-2.08,2.928-3.68,5.04-4.8c2.144-1.12,4.56-1.68,7.248-1.68s5.088.56,7.2,1.68c2.144,1.12,3.824,2.72,5.04,4.8c1.248,2.079999,1.872,4.512,1.872,7.296s-.624,5.23201-1.872,7.34401c-1.216,2.08-2.896,3.68-5.04,4.8s-4.56,1.68-7.248,1.68Zm0-8.16c1.312,0,2.4-.48,3.264-1.44.896-.99201,1.344-2.40001,1.344-4.22401s-.448-3.216-1.344-4.176c-.864-.960001-1.936-1.440001-3.216-1.440001s-2.352.48-3.216,1.440001-1.296,2.352-1.296,4.176c0,1.856.416,3.264,1.248,4.22401s1.904,1.44,3.216,1.44Zm16.452-5.66401c0-2.784.496-5.216001,1.488-7.296c1.024-2.08,2.416-3.68,4.176-4.8s3.712-1.68,5.856-1.68c1.728,0,3.264.368,4.608,1.104c1.376.704,2.448,1.68,3.216,2.928v-12.28799h9.456v35.52h-9.456v-3.744c-.736,1.248-1.776,2.24-3.12,2.976s-2.928,1.104-4.752,1.104c-2.144,0-4.096-.56-5.856-1.68-1.728-1.12-3.104-2.72-4.128-4.8-.992-2.112-1.488-4.56001-1.488-7.34401Zm19.392,0c0-1.728-.48-3.088-1.44-4.08-.928-.992-2.08-1.488-3.456-1.488-1.408,0-2.576.496-3.504,1.488-.928.96-1.392,2.32-1.392,4.08c0,1.728.464,3.104,1.392,4.128.928.99201,2.096,1.48801,3.504,1.48801c1.376,0,2.528-.496,3.456-1.48801.96-.992,1.44-2.368,1.44-4.128Zm42.321-13.44v26.92801h-9.456v-3.84c-.8,1.216-1.904,2.208-3.312,2.976-1.408.736-3.024,1.104-4.848,1.104-3.136,0-5.616-1.024-7.44-3.072-1.792-2.08-2.688-4.896-2.688-8.44801v-15.648h9.36v14.448c0,1.536.4,2.752,1.2,3.64801.832.864,1.92,1.296,3.264,1.296c1.376,0,2.464-.432,3.264-1.296.8-.89601,1.2-2.11201,1.2-3.64801v-14.448h9.456Zm3.818,13.44c0-2.784.576-5.216001,1.728-7.296s2.752-3.68,4.8-4.8c2.08-1.12,4.448-1.68,7.104-1.68c3.424,0,6.304.944,8.64,2.832c2.336,1.856,3.84,4.463999,4.512,7.824h-9.984c-.576-1.76-1.696-2.64-3.36-2.64-1.184,0-2.128.496-2.832,1.488-.672.96-1.008,2.384-1.008,4.272s.336,3.328,1.008,4.32001c.704.992,1.648,1.488,2.832,1.488c1.696,0,2.816-.88,3.36-2.64001h9.984c-.672,3.32801-2.176,5.93601-4.512,7.82401s-5.216,2.832-8.64,2.832c-2.656,0-5.024-.56-7.104-1.68-2.048-1.12-3.648-2.72-4.8-4.8s-1.728-4.52801-1.728-7.34401Zm46.58,5.47201v8.016h-4.08c-6.88,0-10.32-3.408-10.32-10.22401v-8.880001h-3.312v-7.823999h3.312v-6.52799h9.456v6.52799h4.896v7.823999h-4.896v9.024001c0,.736.16,1.26401.48,1.58401.352.32.928.48,1.728.48h2.736Zm9.067-21.408c-1.664,0-3.008-.448-4.032-1.344-.992-.928-1.488-2.08-1.488-3.456c0-1.408.496-2.576,1.488-3.504c1.024-.928,2.368-1.392,4.032-1.392c1.632,0,2.944.464,3.936,1.392c1.024.928,1.536,2.096,1.536,3.504c0,1.376-.512,2.528-1.536,3.456-.992.896-2.304,1.344-3.936,1.344Zm4.656,2.49599v26.92801h-9.408v-26.92801h9.408ZM254.139,19.6114c-2.688,0-5.104-.56-7.248-1.68-2.112-1.12-3.776-2.72-4.992-4.8s-1.824-4.52801-1.824-7.34401c0-2.784.608-5.216001,1.824-7.296c1.248-2.08,2.928-3.68,5.04-4.8c2.144-1.12,4.56-1.68,7.248-1.68s5.088.56,7.2,1.68c2.144,1.12,3.824,2.72,5.04,4.8c1.248,2.079999,1.872,4.512,1.872,7.296s-.624,5.23201-1.872,7.34401c-1.216,2.08-2.896,3.68-5.04,4.8s-4.56,1.68-7.248,1.68Zm0-8.16c1.312,0,2.4-.48,3.264-1.44.896-.99201,1.344-2.40001,1.344-4.22401s-.448-3.216-1.344-4.176c-.864-.960001-1.936-1.440001-3.216-1.440001s-2.352.48-3.216,1.440001-1.296,2.352-1.296,4.176c0,1.856.416,3.264,1.248,4.22401s1.904,1.44,3.216,1.44Zm35.603-19.34401c3.104,0,5.568,1.04,7.392,3.12c1.824,2.048,2.736,4.832,2.736,8.352v15.69601h-9.408v-14.44801c0-1.536-.4-2.736-1.2-3.6-.8-.896-1.872-1.344-3.216-1.344-1.408,0-2.512.448-3.312,1.344-.8.864-1.2,2.064-1.2,3.6v14.44801h-9.408v-26.92801h9.408v3.84c.832-1.216,1.952-2.192,3.36-2.928c1.408-.768,3.024-1.152,4.848-1.152Zm22.942,13.68c0-2.784.496-5.216001,1.488-7.296c1.024-2.08,2.4-3.68,4.128-4.8c1.76-1.12,3.712-1.68,5.856-1.68c1.856,0,3.456.368,4.8,1.104s2.384,1.728,3.12,2.976v-3.744h9.408v26.92801h-9.408v-3.744c-.736,1.248-1.792,2.24-3.168,2.976-1.344.736-2.928,1.104-4.752,1.104-2.144,0-4.096-.56-5.856-1.68-1.728-1.12-3.104-2.72-4.128-4.8-.992-2.112-1.488-4.56001-1.488-7.34401Zm19.392,0c0-1.728-.48-3.088-1.44-4.08-.928-.992-2.08-1.488-3.456-1.488-1.408,0-2.576.496-3.504,1.488-.928.96-1.392,2.32-1.392,4.08c0,1.728.464,3.104,1.392,4.128.928.99201,2.096,1.48801,3.504,1.48801c1.376,0,2.528-.496,3.456-1.48801.96-.992,1.44-2.368,1.44-4.128Zm24.177-9.696c.736-1.248,1.776-2.24,3.12-2.976s2.928-1.104,4.752-1.104c2.144,0,4.08.56,5.808,1.68c1.76,1.12,3.136,2.72,4.128,4.8c1.024,2.079999,1.536,4.512,1.536,7.296s-.512,5.23201-1.536,7.34401c-.992,2.08-2.368,3.68-4.128,4.8-1.728,1.12-3.664,1.68-5.808,1.68-1.824,0-3.408-.368-4.752-1.104-1.312-.736-2.352-1.728-3.12-2.976v16.608h-9.408v-39.79201h9.408v3.744Zm9.792,9.696c0-1.76-.48-3.12-1.44-4.08-.928-.992-2.08-1.488-3.456-1.488s-2.544.496-3.504,1.488c-.928.992-1.392,2.352-1.392,4.08c0,1.76.464,3.136,1.392,4.128.96.99201,2.128,1.48801,3.504,1.48801s2.528-.496,3.456-1.48801c.96-1.024,1.44-2.4,1.44-4.128Zm22.833-9.696c.736-1.248,1.776-2.24,3.12-2.976s2.928-1.104,4.752-1.104c2.144,0,4.08.56,5.808,1.68c1.76,1.12,3.136,2.72,4.128,4.8c1.024,2.079999,1.536,4.512,1.536,7.296s-.512,5.23201-1.536,7.34401c-.992,2.08-2.368,3.68-4.128,4.8-1.728,1.12-3.664,1.68-5.808,1.68-1.824,0-3.408-.368-4.752-1.104-1.312-.736-2.352-1.728-3.12-2.976v16.608h-9.408v-39.79201h9.408v3.744Zm9.792,9.696c0-1.76-.48-3.12-1.44-4.08-.928-.992-2.08-1.488-3.456-1.488s-2.544.496-3.504,1.488c-.928.992-1.392,2.352-1.392,4.08c0,1.76.464,3.136,1.392,4.128.96.99201,2.128,1.48801,3.504,1.48801s2.528-.496,3.456-1.48801c.96-1.024,1.44-2.4,1.44-4.128Z" fill="#ccc"/><g><rect width="1000" height="171.551" rx="20" ry="20" transform="translate(0 192)" fill="#f2f2f2"/><rect width="999" height="170.551" rx="19.5" ry="19.5" transform="translate(.5 192.5)" fill="none" stroke="#bfbfbf"/></g><path d="M69.2015,235.276v33.84h-9.408v-18.672l-6.384,18.672h-7.872L39.1055,250.3v18.816h-9.408v-33.84h11.376l8.496,21.984l8.304-21.984h11.328Zm3.8194,20.352c0-2.784.496-5.216,1.488-7.296c1.024-2.08,2.4-3.68,4.128-4.8c1.76-1.12,3.712-1.68,5.856-1.68c1.856,0,3.456.368,4.8,1.104s2.384,1.728,3.12,2.976v-3.744h9.4081v26.928h-9.4081v-3.744c-.736,1.248-1.792,2.24-3.168,2.976-1.344.736-2.928,1.104-4.752,1.104-2.144,0-4.096-.56-5.856-1.68-1.728-1.12-3.104-2.72-4.128-4.8-.992-2.112-1.488-4.56-1.488-7.344Zm19.392,0c0-1.728-.48-3.088-1.44-4.08-.928-.992-2.08-1.488-3.456-1.488-1.408,0-2.576.496-3.504,1.488-.928.96-1.392,2.32-1.392,4.08c0,1.728.464,3.104,1.392,4.128.928.992,2.096,1.488,3.504,1.488c1.376,0,2.528-.496,3.456-1.488.96-.992,1.44-2.368,1.44-4.128ZM116.59,246.94c1.056-1.536,2.336-2.752,3.84-3.648s3.12-1.344,4.848-1.344v10.032h-2.64c-2.048,0-3.568.4-4.56,1.2s-1.488,2.192-1.488,4.176v11.76h-9.408v-26.928h9.408v4.752Zm28.909,22.176l-7.44-11.04v11.04h-9.408v-35.52h9.408v19.152l7.44-10.56h11.28l-10.608,13.536l10.8,13.392h-11.472Zm39.958-13.776c0,.736-.048,1.472-.144,2.208h-17.808c.096,1.472.496,2.576,1.2,3.312.736.704,1.664,1.056,2.784,1.056c1.568,0,2.688-.704,3.36-2.112h10.032c-.416,1.856-1.232,3.52-2.448,4.992-1.184,1.44-2.688,2.576-4.512,3.408s-3.84,1.248-6.048,1.248c-2.656,0-5.024-.56-7.104-1.68-2.048-1.12-3.664-2.72-4.848-4.8-1.152-2.08-1.728-4.528-1.728-7.344s.576-5.248,1.728-7.296c1.152-2.08,2.752-3.68,4.8-4.8c2.08-1.12,4.464-1.68,7.152-1.68c2.656,0,5.008.544,7.056,1.632s3.648,2.656,4.8,4.704c1.152,2.016,1.728,4.4,1.728,7.152Zm-9.6-2.352c0-1.152-.384-2.048-1.152-2.688-.768-.672-1.728-1.008-2.88-1.008s-2.096.32-2.832.96c-.736.608-1.216,1.52-1.44,2.736h8.304Zm29.338,8.112v8.016h-4.08c-6.88,0-10.32-3.408-10.32-10.224v-8.88h-3.312v-7.824h3.312v-6.528h9.456v6.528h4.896v7.824h-4.896v9.024c0,.736.16,1.264.48,1.584.352.32.928.48,1.728.48h2.736Zm22.911-15.168c.736-1.248,1.776-2.24,3.12-2.976s2.928-1.104,4.752-1.104c2.144,0,4.08.56,5.808,1.68c1.76,1.12,3.136,2.72,4.128,4.8c1.024,2.08,1.536,4.512,1.536,7.296s-.512,5.232-1.536,7.344c-.992,2.08-2.368,3.68-4.128,4.8-1.728,1.12-3.664,1.68-5.808,1.68-1.824,0-3.408-.368-4.752-1.104-1.312-.736-2.352-1.728-3.12-2.976v16.608h-9.408v-39.792h9.408v3.744Zm9.792,9.696c0-1.76-.48-3.12-1.44-4.08-.928-.992-2.08-1.488-3.456-1.488s-2.544.496-3.504,1.488c-.928.992-1.392,2.352-1.392,4.08c0,1.76.464,3.136,1.392,4.128.96.992,2.128,1.488,3.504,1.488s2.528-.496,3.456-1.488c.96-1.024,1.44-2.4,1.44-4.128Zm22.833-8.688c1.056-1.536,2.336-2.752,3.84-3.648s3.12-1.344,4.848-1.344v10.032h-2.64c-2.048,0-3.568.4-4.56,1.2s-1.488,2.192-1.488,4.176v11.76h-9.408v-26.928h9.408v4.752Zm24.588,22.512c-2.688,0-5.104-.56-7.248-1.68-2.112-1.12-3.776-2.72-4.992-4.8s-1.824-4.528-1.824-7.344c0-2.784.608-5.216,1.824-7.296c1.248-2.08,2.928-3.68,5.04-4.8c2.144-1.12,4.56-1.68,7.248-1.68s5.088.56,7.2,1.68c2.144,1.12,3.824,2.72,5.04,4.8c1.248,2.08,1.872,4.512,1.872,7.296s-.624,5.232-1.872,7.344c-1.216,2.08-2.896,3.68-5.04,4.8s-4.56,1.68-7.248,1.68Zm0-8.16c1.312,0,2.4-.48,3.264-1.44.896-.992,1.344-2.4,1.344-4.224s-.448-3.216-1.344-4.176c-.864-.96-1.936-1.44-3.216-1.44s-2.352.48-3.216,1.44-1.296,2.352-1.296,4.176c0,1.856.416,3.264,1.248,4.224s1.904,1.44,3.216,1.44Zm16.452-5.664c0-2.784.496-5.216,1.488-7.296c1.024-2.08,2.416-3.68,4.176-4.8s3.712-1.68,5.856-1.68c1.728,0,3.264.368,4.608,1.104c1.376.704,2.448,1.68,3.216,2.928v-12.288h9.456v35.52h-9.456v-3.744c-.736,1.248-1.776,2.24-3.12,2.976s-2.928,1.104-4.752,1.104c-2.144,0-4.096-.56-5.856-1.68-1.728-1.12-3.104-2.72-4.128-4.8-.992-2.112-1.488-4.56-1.488-7.344Zm19.392,0c0-1.728-.48-3.088-1.44-4.08-.928-.992-2.08-1.488-3.456-1.488-1.408,0-2.576.496-3.504,1.488-.928.96-1.392,2.32-1.392,4.08c0,1.728.464,3.104,1.392,4.128.928.992,2.096,1.488,3.504,1.488c1.376,0,2.528-.496,3.456-1.488.96-.992,1.44-2.368,1.44-4.128Zm42.321-13.44v26.928h-9.456v-3.84c-.8,1.216-1.904,2.208-3.312,2.976-1.408.736-3.024,1.104-4.848,1.104-3.136,0-5.616-1.024-7.44-3.072-1.792-2.08-2.688-4.896-2.688-8.448v-15.648h9.36v14.448c0,1.536.4,2.752,1.2,3.648.832.864,1.92,1.296,3.264,1.296c1.376,0,2.464-.432,3.264-1.296.8-.896,1.2-2.112,1.2-3.648v-14.448h9.456Zm3.818,13.44c0-2.784.576-5.216,1.728-7.296s2.752-3.68,4.8-4.8c2.08-1.12,4.448-1.68,7.104-1.68c3.424,0,6.304.944,8.64,2.832c2.336,1.856,3.84,4.464,4.512,7.824h-9.984c-.576-1.76-1.696-2.64-3.36-2.64-1.184,0-2.128.496-2.832,1.488-.672.96-1.008,2.384-1.008,4.272s.336,3.328,1.008,4.32c.704.992,1.648,1.488,2.832,1.488c1.696,0,2.816-.88,3.36-2.64h9.984c-.672,3.328-2.176,5.936-4.512,7.824s-5.216,2.832-8.64,2.832c-2.656,0-5.024-.56-7.104-1.68-2.048-1.12-3.648-2.72-4.8-4.8s-1.728-4.528-1.728-7.344Zm46.58,5.472v8.016h-4.08c-6.88,0-10.32-3.408-10.32-10.224v-8.88h-3.312v-7.824h3.312v-6.528h9.456v6.528h4.896v7.824h-4.896v9.024c0,.736.16,1.264.48,1.584.352.32.928.48,1.728.48h2.736Zm9.068-21.408c-1.664,0-3.008-.448-4.032-1.344-.992-.928-1.488-2.08-1.488-3.456c0-1.408.496-2.576,1.488-3.504c1.024-.928,2.368-1.392,4.032-1.392c1.632,0,2.944.464,3.936,1.392c1.024.928,1.536,2.096,1.536,3.504c0,1.376-.512,2.528-1.536,3.456-.992.896-2.304,1.344-3.936,1.344Zm4.656,2.496v26.928h-9.408v-26.928h9.408Zm17.885,27.264c-2.688,0-5.104-.56-7.248-1.68-2.112-1.12-3.776-2.72-4.992-4.8s-1.824-4.528-1.824-7.344c0-2.784.608-5.216,1.824-7.296c1.248-2.08,2.928-3.68,5.04-4.8c2.144-1.12,4.56-1.68,7.248-1.68s5.088.56,7.2,1.68c2.144,1.12,3.824,2.72,5.04,4.8c1.248,2.08,1.872,4.512,1.872,7.296s-.624,5.232-1.872,7.344c-1.216,2.08-2.896,3.68-5.04,4.8s-4.56,1.68-7.248,1.68Zm0-8.16c1.312,0,2.4-.48,3.264-1.44.896-.992,1.344-2.4,1.344-4.224s-.448-3.216-1.344-4.176c-.864-.96-1.936-1.44-3.216-1.44s-2.352.48-3.216,1.44-1.296,2.352-1.296,4.176c0,1.856.416,3.264,1.248,4.224s1.904,1.44,3.216,1.44Zm35.604-19.344c3.104,0,5.568,1.04,7.392,3.12c1.824,2.048,2.736,4.832,2.736,8.352v15.696h-9.408v-14.448c0-1.536-.4-2.736-1.2-3.6-.8-.896-1.872-1.344-3.216-1.344-1.408,0-2.512.448-3.312,1.344-.8.864-1.2,2.064-1.2,3.6v14.448h-9.408v-26.928h9.408v3.84c.832-1.216,1.952-2.192,3.36-2.928c1.408-.768,3.024-1.152,4.848-1.152Z" fill="#ccc"/><g><rect width="1000" height="171.551" rx="20" ry="20" transform="translate(0 446)" fill="#f2f2f2"/><rect width="999" height="170.551" rx="19.5" ry="19.5" transform="translate(.5 446.5)" fill="none" stroke="#bfbfbf"/></g><path d="M59.7426,490.435v33.84h-9.408v-13.584h-11.472v13.584h-9.408v-33.84h9.408v12.72h11.472v-12.72h9.408Zm22.5199,33.84l-6.72-12.48h-1.008v12.48h-9.408v-33.84h14.832c2.72,0,5.024.48,6.912,1.44c1.888.928,3.312,2.224,4.272,3.888.96,1.632,1.44,3.472,1.44,5.52c0,2.304-.64,4.336-1.92,6.096-1.248,1.728-3.088,2.96-5.52,3.696l7.632,13.2h-10.512Zm-7.728-18.912h4.656c1.28,0,2.24-.304,2.88-.912s.96-1.488.96-2.64c0-1.088-.336-1.936-1.008-2.544-.64-.64-1.584-.96-2.832-.96h-4.656v7.056Zm29.9775,5.424c0-2.784.496-5.216,1.488-7.296c1.024-2.08,2.416-3.68,4.176-4.8s3.712-1.68,5.856-1.68c1.728,0,3.264.368,4.608,1.104c1.376.704,2.448,1.68,3.216,2.928v-12.288h9.456v35.52h-9.456v-3.744c-.736,1.248-1.776,2.24-3.12,2.976s-2.928,1.104-4.752,1.104c-2.144,0-4.096-.56-5.856-1.68-1.728-1.12-3.104-2.72-4.128-4.8-.992-2.112-1.488-4.56-1.488-7.344Zm19.392,0c0-1.728-.48-3.088-1.44-4.08-.928-.992-2.08-1.488-3.456-1.488-1.408,0-2.576.496-3.504,1.488-.928.96-1.392,2.32-1.392,4.08c0,1.728.464,3.104,1.392,4.128.928.992,2.096,1.488,3.504,1.488c1.376,0,2.528-.496,3.456-1.488.96-.992,1.44-2.368,1.44-4.128Zm40.497-.288c0,.736-.048,1.472-.144,2.208h-17.808c.096,1.472.496,2.576,1.2,3.312.736.704,1.664,1.056,2.784,1.056c1.568,0,2.688-.704,3.36-2.112h10.032c-.416,1.856-1.232,3.52-2.448,4.992-1.184,1.44-2.688,2.576-4.512,3.408s-3.84,1.248-6.048,1.248c-2.656,0-5.024-.56-7.104-1.68-2.048-1.12-3.664-2.72-4.848-4.8-1.152-2.08-1.728-4.528-1.728-7.344s.576-5.248,1.728-7.296c1.152-2.08,2.752-3.68,4.8-4.8c2.08-1.12,4.464-1.68,7.152-1.68c2.656,0,5.008.544,7.056,1.632s3.648,2.656,4.8,4.704c1.152,2.016,1.728,4.4,1.728,7.152Zm-9.6-2.352c0-1.152-.384-2.048-1.152-2.688-.768-.672-1.728-1.008-2.88-1.008s-2.096.32-2.832.96c-.736.608-1.216,1.52-1.44,2.736h8.304Zm26.362,7.248l5.04-18.048h10.032l-9.264,26.928h-11.712l-9.264-26.928h10.032l5.136,18.048Zm43.988-4.896c0,.736-.048,1.472-.144,2.208h-17.808c.096,1.472.496,2.576,1.2,3.312.736.704,1.664,1.056,2.784,1.056c1.568,0,2.688-.704,3.36-2.112h10.032c-.416,1.856-1.232,3.52-2.448,4.992-1.184,1.44-2.688,2.576-4.512,3.408s-3.84,1.248-6.048,1.248c-2.656,0-5.024-.56-7.104-1.68-2.048-1.12-3.664-2.72-4.848-4.8-1.152-2.08-1.728-4.528-1.728-7.344s.576-5.248,1.728-7.296c1.152-2.08,2.752-3.68,4.8-4.8c2.08-1.12,4.464-1.68,7.152-1.68c2.656,0,5.008.544,7.056,1.632s3.648,2.656,4.8,4.704c1.152,2.016,1.728,4.4,1.728,7.152Zm-9.6-2.352c0-1.152-.384-2.048-1.152-2.688-.768-.672-1.728-1.008-2.88-1.008s-2.096.32-2.832.96c-.736.608-1.216,1.52-1.44,2.736h8.304Zm22.858-19.392v35.52h-9.408v-35.52h9.408Zm17.886,35.856c-2.688,0-5.104-.56-7.248-1.68-2.112-1.12-3.776-2.72-4.992-4.8s-1.824-4.528-1.824-7.344c0-2.784.608-5.216,1.824-7.296c1.248-2.08,2.928-3.68,5.04-4.8c2.144-1.12,4.56-1.68,7.248-1.68s5.088.56,7.2,1.68c2.144,1.12,3.824,2.72,5.04,4.8c1.248,2.08,1.872,4.512,1.872,7.296s-.624,5.232-1.872,7.344c-1.216,2.08-2.896,3.68-5.04,4.8s-4.56,1.68-7.248,1.68Zm0-8.16c1.312,0,2.4-.48,3.264-1.44.896-.992,1.344-2.4,1.344-4.224s-.448-3.216-1.344-4.176c-.864-.96-1.936-1.44-3.216-1.44s-2.352.48-3.216,1.44-1.296,2.352-1.296,4.176c0,1.856.416,3.264,1.248,4.224s1.904,1.44,3.216,1.44Zm27.396-15.36c.736-1.248,1.776-2.24,3.12-2.976s2.928-1.104,4.752-1.104c2.144,0,4.08.56,5.808,1.68c1.76,1.12,3.136,2.72,4.128,4.8c1.024,2.08,1.536,4.512,1.536,7.296s-.512,5.232-1.536,7.344c-.992,2.08-2.368,3.68-4.128,4.8-1.728,1.12-3.664,1.68-5.808,1.68-1.824,0-3.408-.368-4.752-1.104-1.312-.736-2.352-1.728-3.12-2.976v16.608h-9.408v-39.792h9.408v3.744Zm9.792,9.696c0-1.76-.48-3.12-1.44-4.08-.928-.992-2.08-1.488-3.456-1.488s-2.544.496-3.504,1.488c-.928.992-1.392,2.352-1.392,4.08c0,1.76.464,3.136,1.392,4.128.96.992,2.128,1.488,3.504,1.488s2.528-.496,3.456-1.488c.96-1.024,1.44-2.4,1.44-4.128Zm48.609-13.68c3.392,0,6.048,1.024,7.968,3.072c1.952,2.048,2.928,4.848,2.928,8.4v15.696h-9.408v-14.448c0-1.44-.4-2.56-1.2-3.36s-1.888-1.2-3.264-1.2-2.464.4-3.264,1.2-1.2,1.92-1.2,3.36v14.448h-9.408v-14.448c0-1.44-.4-2.56-1.2-3.36-.768-.8-1.84-1.2-3.216-1.2-1.408,0-2.512.4-3.312,1.2s-1.2,1.92-1.2,3.36v14.448h-9.408v-26.928h9.408v3.552c.832-1.152,1.904-2.064,3.216-2.736c1.344-.704,2.88-1.056,4.608-1.056c1.984,0,3.744.432,5.28,1.296c1.568.864,2.8,2.08,3.696,3.648.96-1.472,2.224-2.656,3.792-3.552c1.568-.928,3.296-1.392,5.184-1.392Zm41.778,13.392c0,.736-.048,1.472-.144,2.208h-17.808c.096,1.472.496,2.576,1.2,3.312.736.704,1.664,1.056,2.784,1.056c1.568,0,2.688-.704,3.36-2.112h10.032c-.416,1.856-1.232,3.52-2.448,4.992-1.184,1.44-2.688,2.576-4.512,3.408s-3.84,1.248-6.048,1.248c-2.656,0-5.024-.56-7.104-1.68-2.048-1.12-3.664-2.72-4.848-4.8-1.152-2.08-1.728-4.528-1.728-7.344s.576-5.248,1.728-7.296c1.152-2.08,2.752-3.68,4.8-4.8c2.08-1.12,4.464-1.68,7.152-1.68c2.656,0,5.008.544,7.056,1.632s3.648,2.656,4.8,4.704c1.152,2.016,1.728,4.4,1.728,7.152Zm-9.6-2.352c0-1.152-.384-2.048-1.152-2.688-.768-.672-1.728-1.008-2.88-1.008s-2.096.32-2.832.96c-.736.608-1.216,1.52-1.44,2.736h8.304Zm31.066-11.04c3.104,0,5.568,1.04,7.392,3.12c1.824,2.048,2.736,4.832,2.736,8.352v15.696h-9.408v-14.448c0-1.536-.4-2.736-1.2-3.6-.8-.896-1.872-1.344-3.216-1.344-1.408,0-2.512.448-3.312,1.344-.8.864-1.2,2.064-1.2,3.6v14.448h-9.408v-26.928h9.408v3.84c.832-1.216,1.952-2.192,3.36-2.928c1.408-.768,3.024-1.152,4.848-1.152Zm31.178,19.152v8.016h-4.08c-6.88,0-10.32-3.408-10.32-10.224v-8.88h-3.312v-7.824h3.312v-6.528h9.456v6.528h4.896v7.824h-4.896v9.024c0,.736.16,1.264.48,1.584.352.32.928.48,1.728.48h2.736Z" fill="#ccc"/><g><rect width="1000" height="171.551" rx="20" ry="20" transform="translate(0 700)" fill="#f2f2f2"/><rect width="999" height="170.551" rx="19.5" ry="19.5" transform="translate(.5 700.5)" fill="none" stroke="#bfbfbf"/></g><path d="M55.1855,744.276v7.488h-9.024v26.352h-9.408v-26.352h-8.928v-7.488h27.36ZM84.3943,764.34c0,.736-.048,1.472-.144,2.208h-17.808c.096,1.472.496,2.576,1.2,3.312.736.704,1.664,1.056,2.784,1.056c1.568,0,2.688-.704,3.36-2.112h10.032c-.416,1.856-1.232,3.52-2.448,4.992-1.184,1.44-2.688,2.576-4.512,3.408s-3.84,1.248-6.048,1.248c-2.656,0-5.024-.56-7.104-1.68-2.048-1.12-3.664-2.72-4.848-4.8-1.152-2.08-1.728-4.528-1.728-7.344s.576-5.248,1.728-7.296c1.152-2.08,2.752-3.68,4.8-4.8c2.08-1.12,4.464-1.68,7.152-1.68c2.656,0,5.008.544,7.056,1.632s3.648,2.656,4.8,4.704c1.152,2.016,1.728,4.4,1.728,7.152Zm-9.6-2.352c0-1.152-.384-2.048-1.152-2.688-.768-.672-1.728-1.008-2.88-1.008s-2.096.32-2.832.96c-.736.608-1.216,1.52-1.44,2.736h8.304Zm11.9141,2.64c0-2.784.576-5.216,1.728-7.296s2.752-3.68,4.8-4.8c2.08-1.12,4.448-1.68,7.1036-1.68c3.424,0,6.304.944,8.64,2.832c2.336,1.856,3.84,4.464,4.512,7.824h-9.984c-.576-1.76-1.696-2.64-3.36-2.64-1.1836,0-2.1276.496-2.8316,1.488-.672.96-1.008,2.384-1.008,4.272s.336,3.328,1.008,4.32c.704.992,1.648,1.488,2.8316,1.488c1.696,0,2.816-.88,3.36-2.64h9.984c-.672,3.328-2.176,5.936-4.512,7.824s-5.216,2.832-8.64,2.832c-2.6556,0-5.0236-.56-7.1036-1.68-2.048-1.12-3.648-2.72-4.8-4.8s-1.728-4.528-1.728-7.344Zm48.4046-13.68c3.072,0,5.504,1.04,7.296,3.12c1.824,2.048,2.736,4.832,2.736,8.352v15.696h-9.408v-14.448c0-1.536-.4-2.736-1.2-3.6-.8-.896-1.872-1.344-3.216-1.344-1.408,0-2.512.448-3.312,1.344-.8.864-1.2,2.064-1.2,3.6v14.448h-9.408v-35.52h9.408v12.432c.832-1.216,1.952-2.192,3.36-2.928c1.44-.768,3.088-1.152,4.944-1.152ZM154.867,778.5c-1.664,0-3.008-.448-4.032-1.344-.992-.928-1.488-2.096-1.488-3.504s.496-2.576,1.488-3.504c1.024-.928,2.368-1.392,4.032-1.392c1.632,0,2.944.464,3.936,1.392c1.024.928,1.536,2.096,1.536,3.504c0,1.376-.512,2.528-1.536,3.456-.992.928-2.304,1.392-3.936,1.392Zm30.537-.048c-2.432,0-4.608-.4-6.528-1.2-1.888-.832-3.392-1.952-4.512-3.36-1.088-1.44-1.696-3.056-1.824-4.848h9.12c.128.864.528,1.536,1.2,2.016s1.504.72,2.496.72c.768,0,1.376-.16,1.824-.48s.672-.736.672-1.248c0-.672-.368-1.168-1.104-1.488s-1.952-.672-3.648-1.056c-1.92-.384-3.52-.816-4.8-1.296s-2.4-1.264-3.36-2.352c-.928-1.088-1.392-2.56-1.392-4.416c0-1.6.432-3.04,1.296-4.32.864-1.312,2.128-2.352,3.792-3.12c1.696-.768,3.728-1.152,6.096-1.152c3.52,0,6.288.864,8.304,2.592s3.184,4,3.504,6.816h-8.496c-.16-.864-.544-1.52-1.152-1.968-.576-.48-1.36-.72-2.352-.72-.768,0-1.36.144-1.776.432-.384.288-.576.688-.576,1.2c0,.64.368,1.136,1.104,1.488.736.32,1.92.656,3.552,1.008c1.952.416,3.568.88,4.848,1.392c1.312.512,2.448,1.344,3.408,2.496.992,1.12,1.488,2.656,1.488,4.608c0,1.568-.464,2.976-1.392,4.224-.896,1.248-2.192,2.24-3.888,2.976-1.664.704-3.632,1.056-5.904,1.056Zm31.697-8.352v8.016h-4.08c-6.88,0-10.32-3.408-10.32-10.224v-8.88h-3.312v-7.824h3.312v-6.528h9.456v6.528h4.896v7.824h-4.896v9.024c0,.736.16,1.264.48,1.584.352.32.928.48,1.728.48h2.736Zm2.779-5.472c0-2.784.496-5.216,1.488-7.296c1.024-2.08,2.4-3.68,4.128-4.8c1.76-1.12,3.712-1.68,5.856-1.68c1.856,0,3.456.368,4.8,1.104s2.384,1.728,3.12,2.976v-3.744h9.408v26.928h-9.408v-3.744c-.736,1.248-1.792,2.24-3.168,2.976-1.344.736-2.928,1.104-4.752,1.104-2.144,0-4.096-.56-5.856-1.68-1.728-1.12-3.104-2.72-4.128-4.8-.992-2.112-1.488-4.56-1.488-7.344Zm19.392,0c0-1.728-.48-3.088-1.44-4.08-.928-.992-2.08-1.488-3.456-1.488-1.408,0-2.576.496-3.504,1.488-.928.96-1.392,2.32-1.392,4.08c0,1.728.464,3.104,1.392,4.128.928.992,2.096,1.488,3.504,1.488c1.376,0,2.528-.496,3.456-1.488.96-.992,1.44-2.368,1.44-4.128Zm24.705-13.776c1.824,0,3.408.368,4.752,1.104c1.376.736,2.432,1.728,3.168,2.976v-3.744h9.408v26.64c0,2.528-.48,4.8-1.44,6.816-.96,2.048-2.464,3.68-4.512,4.896-2.016,1.216-4.576,1.824-7.68,1.824-4.16,0-7.488-.976-9.984-2.928s-3.92-4.608-4.272-7.968h9.264c.192.864.672,1.536,1.44,2.016s1.76.72,2.976.72c3.2,0,4.8-1.792,4.8-5.376v-3.456c-.736,1.248-1.792,2.24-3.168,2.976-1.344.736-2.928,1.104-4.752,1.104-2.144,0-4.096-.56-5.856-1.68-1.728-1.12-3.104-2.72-4.128-4.8-.992-2.112-1.488-4.56-1.488-7.344s.496-5.216,1.488-7.296c1.024-2.08,2.4-3.68,4.128-4.8c1.76-1.12,3.712-1.68,5.856-1.68Zm7.92,13.776c0-1.728-.48-3.088-1.44-4.08-.928-.992-2.08-1.488-3.456-1.488-1.408,0-2.576.496-3.504,1.488-.928.96-1.392,2.32-1.392,4.08c0,1.728.464,3.104,1.392,4.128.928.992,2.096,1.488,3.504,1.488c1.376,0,2.528-.496,3.456-1.488.96-.992,1.44-2.368,1.44-4.128Zm19.521-15.936c-1.664,0-3.008-.448-4.032-1.344-.992-.928-1.488-2.08-1.488-3.456c0-1.408.496-2.576,1.488-3.504c1.024-.928,2.368-1.392,4.032-1.392c1.632,0,2.944.464,3.936,1.392c1.024.928,1.536,2.096,1.536,3.504c0,1.376-.512,2.528-1.536,3.456-.992.896-2.304,1.344-3.936,1.344Zm4.656,2.496v26.928h-9.408v-26.928h9.408Zm22.974-.24c3.104,0,5.568,1.04,7.392,3.12c1.824,2.048,2.736,4.832,2.736,8.352v15.696h-9.408v-14.448c0-1.536-.4-2.736-1.2-3.6-.8-.896-1.872-1.344-3.216-1.344-1.408,0-2.512.448-3.312,1.344-.8.864-1.2,2.064-1.2,3.6v14.448h-9.408v-26.928h9.408v3.84c.832-1.216,1.952-2.192,3.36-2.928c1.408-.768,3.024-1.152,4.848-1.152Zm25.226-.096c1.824,0,3.408.368,4.752,1.104c1.376.736,2.432,1.728,3.168,2.976v-3.744h9.408v26.64c0,2.528-.48,4.8-1.44,6.816-.96,2.048-2.464,3.68-4.512,4.896-2.016,1.216-4.576,1.824-7.68,1.824-4.16,0-7.488-.976-9.984-2.928s-3.92-4.608-4.272-7.968h9.264c.192.864.672,1.536,1.44,2.016s1.76.72,2.976.72c3.2,0,4.8-1.792,4.8-5.376v-3.456c-.736,1.248-1.792,2.24-3.168,2.976-1.344.736-2.928,1.104-4.752,1.104-2.144,0-4.096-.56-5.856-1.68-1.728-1.12-3.104-2.72-4.128-4.8-.992-2.112-1.488-4.56-1.488-7.344s.496-5.216,1.488-7.296c1.024-2.08,2.4-3.68,4.128-4.8c1.76-1.12,3.712-1.68,5.856-1.68Zm7.92,13.776c0-1.728-.48-3.088-1.44-4.08-.928-.992-2.08-1.488-3.456-1.488-1.408,0-2.576.496-3.504,1.488-.928.96-1.392,2.32-1.392,4.08c0,1.728.464,3.104,1.392,4.128.928.992,2.096,1.488,3.504,1.488c1.376,0,2.528-.496,3.456-1.488.96-.992,1.44-2.368,1.44-4.128Z" fill="#ccc"/><g><rect width="1000" height="171.551" rx="20" ry="20" transform="translate(0 952)" fill="#f2f2f2"/><rect width="999" height="170.551" rx="19.5" ry="19.5" transform="translate(.5 952.5)" fill="none" stroke="#bfbfbf"/></g><path d="M69.192,996.16v33.84h-9.408v-18.67L53.4,1030h-7.872l-6.432-18.82v18.82h-9.408v-33.84h11.376l8.496,21.98l8.304-21.98h11.328Zm34.347,6.91l-17.0876,39.75h-10.224l6.432-13.97-11.04-25.78h10.464l5.664,15.27l5.472-15.27h10.3196Zm10.113,13.44c0-2.78.496-5.21,1.488-7.29c1.024-2.08,2.4-3.68,4.128-4.8c1.76-1.12,3.712-1.68,5.856-1.68c1.856,0,3.456.36,4.8,1.1s2.384,1.73,3.12,2.98v-3.75h9.408v26.93h-9.408v-3.74c-.736,1.24-1.792,2.24-3.168,2.97-1.344.74-2.928,1.11-4.752,1.11-2.144,0-4.096-.56-5.856-1.68-1.728-1.12-3.104-2.72-4.128-4.8-.992-2.12-1.488-4.56-1.488-7.35Zm19.392,0c0-1.73-.48-3.09-1.44-4.08-.928-.99-2.08-1.49-3.456-1.49-1.408,0-2.576.5-3.504,1.49-.928.96-1.392,2.32-1.392,4.08c0,1.73.464,3.11,1.392,4.13.928.99,2.096,1.49,3.504,1.49c1.376,0,2.528-.5,3.456-1.49.96-.99,1.44-2.37,1.44-4.13Zm32.385-13.68c3.104,0,5.568,1.04,7.392,3.12c1.824,2.05,2.736,4.83,2.736,8.35v15.7h-9.408v-14.45c0-1.53-.4-2.73-1.2-3.6-.8-.89-1.872-1.34-3.216-1.34-1.408,0-2.512.45-3.312,1.34-.8.87-1.2,2.07-1.2,3.6v14.45h-9.408v-26.93h9.408v3.84c.832-1.21,1.952-2.19,3.36-2.93c1.408-.76,3.024-1.15,4.848-1.15Zm27.818,27.51c-2.688,0-5.104-.56-7.248-1.68-2.112-1.12-3.776-2.72-4.992-4.8s-1.824-4.53-1.824-7.35c0-2.78.608-5.21,1.824-7.29c1.248-2.08,2.928-3.68,5.04-4.8c2.144-1.12,4.56-1.68,7.248-1.68s5.088.56,7.2,1.68c2.144,1.12,3.824,2.72,5.04,4.8c1.248,2.08,1.872,4.51,1.872,7.29c0,2.79-.624,5.23-1.872,7.35-1.216,2.08-2.896,3.68-5.04,4.8s-4.56,1.68-7.248,1.68Zm0-8.16c1.312,0,2.4-.48,3.264-1.44.896-1,1.344-2.4,1.344-4.23c0-1.82-.448-3.21-1.344-4.17-.864-.96-1.936-1.44-3.216-1.44s-2.352.48-3.216,1.44-1.296,2.35-1.296,4.17c0,1.86.416,3.27,1.248,4.23s1.904,1.44,3.216,1.44Zm33.876-.2v8.02h-4.08c-6.88,0-10.32-3.41-10.32-10.22v-8.88h-3.312v-7.83h3.312v-6.526h9.456v6.526h4.896v7.83h-4.896v9.02c0,.74.16,1.26.48,1.58.352.32.928.48,1.728.48h2.736Zm22.027-19.15c3.072,0,5.504,1.04,7.296,3.12c1.824,2.05,2.736,4.83,2.736,8.35v15.7h-9.408v-14.45c0-1.53-.4-2.73-1.2-3.6-.8-.89-1.872-1.34-3.216-1.34-1.408,0-2.512.45-3.312,1.34-.8.87-1.2,2.07-1.2,3.6v14.45h-9.408v-35.52h9.408v12.43c.832-1.21,1.952-2.19,3.36-2.93c1.44-.76,3.088-1.15,4.944-1.15Zm40.922,13.39c0,.74-.048,1.48-.144,2.21h-17.808c.096,1.47.496,2.58,1.2,3.31.736.71,1.664,1.06,2.784,1.06c1.568,0,2.688-.7,3.36-2.11h10.032c-.416,1.85-1.232,3.52-2.448,4.99-1.184,1.44-2.688,2.58-4.512,3.41s-3.84,1.25-6.048,1.25c-2.656,0-5.024-.56-7.104-1.68-2.048-1.12-3.664-2.72-4.848-4.8-1.152-2.08-1.728-4.53-1.728-7.35c0-2.81.576-5.25,1.728-7.29c1.152-2.08,2.752-3.68,4.8-4.8c2.08-1.12,4.464-1.68,7.152-1.68c2.656,0,5.008.54,7.056,1.63s3.648,2.65,4.8,4.7c1.152,2.02,1.728,4.4,1.728,7.15Zm-9.6-2.35c0-1.15-.384-2.05-1.152-2.69-.768-.67-1.728-1-2.88-1s-2.096.32-2.832.96c-.736.6-1.216,1.52-1.44,2.73h8.304Zm22.858-6.05c1.056-1.53,2.336-2.75,3.84-3.64c1.504-.9,3.12-1.35,4.848-1.35v10.03h-2.64c-2.048,0-3.568.4-4.56,1.2s-1.488,2.2-1.488,4.18v11.76h-9.408v-26.93h9.408v4.75Zm30.657-1c.736-1.25,1.776-2.24,3.12-2.98s2.928-1.1,4.752-1.1c2.144,0,4.08.56,5.808,1.68c1.76,1.12,3.136,2.72,4.128,4.8c1.024,2.08,1.536,4.51,1.536,7.29c0,2.79-.512,5.23-1.536,7.35-.992,2.08-2.368,3.68-4.128,4.8-1.728,1.12-3.664,1.68-5.808,1.68-1.824,0-3.408-.37-4.752-1.11-1.312-.73-2.352-1.73-3.12-2.97v16.6h-9.408v-39.79h9.408v3.75Zm9.792,9.69c0-1.76-.48-3.12-1.44-4.08-.928-.99-2.08-1.49-3.456-1.49s-2.544.5-3.504,1.49c-.928.99-1.392,2.35-1.392,4.08c0,1.76.464,3.14,1.392,4.13.96.99,2.128,1.49,3.504,1.49s2.528-.5,3.456-1.49c.96-1.02,1.44-2.4,1.44-4.13Zm22.833-8.69c1.056-1.53,2.336-2.75,3.84-3.64c1.504-.9,3.12-1.35,4.848-1.35v10.03h-2.64c-2.048,0-3.568.4-4.56,1.2s-1.488,2.2-1.488,4.18v11.76h-9.408v-26.93h9.408v4.75Zm24.588,22.52c-2.688,0-5.104-.56-7.248-1.68-2.112-1.12-3.776-2.72-4.992-4.8s-1.824-4.53-1.824-7.35c0-2.78.608-5.21,1.824-7.29c1.248-2.08,2.928-3.68,5.04-4.8c2.144-1.12,4.56-1.68,7.248-1.68s5.088.56,7.2,1.68c2.144,1.12,3.824,2.72,5.04,4.8c1.248,2.08,1.872,4.51,1.872,7.29c0,2.79-.624,5.23-1.872,7.35-1.216,2.08-2.896,3.68-5.04,4.8s-4.56,1.68-7.248,1.68Zm0-8.16c1.312,0,2.4-.48,3.264-1.44.896-1,1.344-2.4,1.344-4.23c0-1.82-.448-3.21-1.344-4.17-.864-.96-1.936-1.44-3.216-1.44s-2.352.48-3.216,1.44-1.296,2.35-1.296,4.17c0,1.86.416,3.27,1.248,4.23s1.904,1.44,3.216,1.44Zm22.692-21.6c-1.664,0-3.008-.45-4.032-1.348-.992-.928-1.488-2.08-1.488-3.456c0-1.408.496-2.576,1.488-3.504c1.024-.928,2.368-1.392,4.032-1.392c1.632,0,2.944.464,3.936,1.392c1.024.928,1.536,2.096,1.536,3.504c0,1.376-.512,2.528-1.536,3.456-.992.898-2.304,1.348-3.936,1.348Zm4.704,32.06c0,6.82-3.424,10.22-10.272,10.22h-3.408v-8.01h2.016c.8,0,1.376-.16,1.728-.48s.528-.85.528-1.59v-29.71h9.408v29.57Zm31.039-16.42c0,.74-.048,1.48-.144,2.21h-17.808c.096,1.47.496,2.58,1.2,3.31.736.71,1.664,1.06,2.784,1.06c1.568,0,2.688-.7,3.36-2.11h10.032c-.416,1.85-1.232,3.52-2.448,4.99-1.184,1.44-2.688,2.58-4.512,3.41s-3.84,1.25-6.048,1.25c-2.656,0-5.024-.56-7.104-1.68-2.048-1.12-3.664-2.72-4.848-4.8-1.152-2.08-1.728-4.53-1.728-7.35c0-2.81.576-5.25,1.728-7.29c1.152-2.08,2.752-3.68,4.8-4.8c2.08-1.12,4.464-1.68,7.152-1.68c2.656,0,5.008.54,7.056,1.63s3.648,2.65,4.8,4.7c1.152,2.02,1.728,4.4,1.728,7.15Zm-9.6-2.35c0-1.15-.384-2.05-1.152-2.69-.768-.67-1.728-1-2.88-1s-2.096.32-2.832.96c-.736.6-1.216,1.52-1.44,2.73h8.304Zm11.914,2.64c0-2.78.576-5.21,1.728-7.29s2.752-3.68,4.8-4.8c2.08-1.12,4.448-1.68,7.104-1.68c3.424,0,6.304.94,8.64,2.83c2.336,1.85,3.84,4.46,4.512,7.82h-9.984c-.576-1.76-1.696-2.64-3.36-2.64-1.184,0-2.128.5-2.832,1.49-.672.96-1.008,2.38-1.008,4.27s.336,3.33,1.008,4.32c.704.99,1.648,1.49,2.832,1.49c1.696,0,2.816-.88,3.36-2.64h9.984c-.672,3.33-2.176,5.94-4.512,7.82-2.336,1.89-5.216,2.84-8.64,2.84-2.656,0-5.024-.56-7.104-1.68-2.048-1.12-3.648-2.72-4.8-4.8s-1.728-4.53-1.728-7.35Zm46.58,5.47v8.02h-4.08c-6.88,0-10.32-3.41-10.32-10.22v-8.88h-3.312v-7.83h3.312v-6.526h9.456v6.526h4.896v7.83h-4.896v9.02c0,.74.16,1.26.48,1.58.352.32.928.48,1.728.48h2.736Z" fill="#ccc"/><g clip-path="url(#e9psjZIAmTH29)"><g><path d="M678.924,326.209l-25.886-44.837c-1.384-2.395-1.384-5.348,0-7.743l25.886-44.835c1.381-2.393,3.932-3.867,6.693-3.871h51.797c2.752.013,5.29,1.487,6.666,3.871l25.882,44.835c1.384,2.395,1.384,5.348,0,7.743l-25.886,44.837c-1.381,2.393-3.932,3.867-6.694,3.871h-51.783c-2.758-.009-5.299-1.484-6.681-3.871h.006Z" fill="#cfcfcf"/><path d="M727.671,263.062c0,0,7.196,17.26-2.614,27.044s-27.673,3.522-27.673,3.522l36.336,36.436h3.689c2.763-.004,5.314-1.48,6.693-3.871l17.136-29.672-33.567-33.459Z" opacity="0.1"/><path d="M736.168,298.381l-7.934-7.953c-.086-.089-.185-.164-.293-.223c3.374-4.347,4.965-9.817,4.447-15.296s-3.105-10.554-7.235-14.192c-4.129-3.637-9.49-5.564-14.99-5.386-5.501.177-10.727,2.445-14.613,6.341-3.887,3.896-6.142,9.127-6.306,14.628-.163,5.501,1.776,10.857,5.424,14.978c3.648,4.12,8.729,6.695,14.209,7.199c5.48.505,10.947-1.099,15.285-4.485.057.103.128.197.21.279l7.953,7.953c.234.233.55.364.88.364.331,0,.647-.131.881-.364l2.082-2.083c.234-.233.365-.55.365-.88s-.131-.647-.365-.88v0Zm-25.337-5.143c-3.218,0-6.364-.954-9.04-2.742-2.676-1.787-4.761-4.328-5.993-7.301s-1.554-6.244-.926-9.401c.627-3.156,2.177-6.055,4.452-8.33c2.276-2.276,5.175-3.825,8.331-4.453s6.428-.305,9.401.926c2.973,1.232,5.514,3.317,7.301,5.993c1.788,2.676,2.742,5.822,2.741,9.04c0,4.314-1.714,8.452-4.765,11.502-3.051,3.051-7.188,4.765-11.502,4.766v0Zm-10.4-17.136v6.723c1.036,1.828,2.534,3.352,4.347,4.416v-11.18l-4.347.041Zm8.135-5.575v18.17c1.437.265,2.91.265,4.347,0v-18.17h-4.347Zm12.577,12.283v-3.983h-4.344v8.368c1.811-1.061,3.31-2.58,4.347-4.403l-.003.018Z" fill="#fff"/></g><clipPath id="e9psjZIAmTH29"><rect width="119" height="119" rx="0" ry="0" transform="translate(652 218)" fill="#fff"/></clipPath></g><path d="M811.64,250.576c-.768-1.408-1.824-2.48-3.168-3.216s-2.912-1.104-4.704-1.104c-1.984,0-3.744.448-5.28,1.344s-2.736,2.176-3.6,3.84-1.296,3.584-1.296,5.76c0,2.24.432,4.192,1.296,5.856.896,1.664,2.128,2.944,3.696,3.84s3.392,1.344,5.472,1.344c2.56,0,4.656-.672,6.288-2.016c1.632-1.376,2.704-3.28,3.216-5.712h-11.52v-5.136h18.144v5.856c-.448,2.336-1.408,4.496-2.88,6.48s-3.376,3.584-5.712,4.8c-2.304,1.184-4.896,1.776-7.776,1.776-3.232,0-6.16-.72-8.784-2.16-2.592-1.472-4.64-3.504-6.144-6.096-1.472-2.592-2.208-5.536-2.208-8.832s.736-6.24,2.208-8.832c1.504-2.624,3.552-4.656,6.144-6.096c2.624-1.472,5.536-2.208,8.736-2.208c3.776,0,7.056.928,9.84,2.784c2.784,1.824,4.704,4.4,5.76,7.728h-7.728Zm22.924,23.856c-2.56,0-4.864-.56-6.912-1.68-2.048-1.152-3.664-2.768-4.848-4.848-1.152-2.08-1.728-4.48-1.728-7.2s.592-5.12,1.776-7.2c1.216-2.08,2.864-3.68,4.944-4.8c2.08-1.152,4.4-1.728,6.96-1.728s4.88.576,6.96,1.728c2.08,1.12,3.712,2.72,4.896,4.8c1.216,2.08,1.824,4.48,1.824,7.2s-.624,5.12-1.872,7.2c-1.216,2.08-2.88,3.696-4.992,4.848-2.08,1.12-4.416,1.68-7.008,1.68Zm0-5.856c1.216,0,2.352-.288,3.408-.864c1.088-.608,1.952-1.504,2.592-2.688s.96-2.624.96-4.32c0-2.528-.672-4.464-2.016-5.808-1.312-1.376-2.928-2.064-4.848-2.064s-3.536.688-4.848,2.064c-1.28,1.344-1.92,3.28-1.92,5.808s.624,4.48,1.872,5.856c1.28,1.344,2.88,2.016,4.8,2.016Zm28.209,5.856c-2.56,0-4.864-.56-6.912-1.68-2.048-1.152-3.664-2.768-4.848-4.848-1.152-2.08-1.728-4.48-1.728-7.2s.592-5.12,1.776-7.2c1.216-2.08,2.864-3.68,4.944-4.8c2.08-1.152,4.4-1.728,6.96-1.728s4.88.576,6.96,1.728c2.08,1.12,3.712,2.72,4.896,4.8c1.216,2.08,1.824,4.48,1.824,7.2s-.624,5.12-1.872,7.2c-1.216,2.08-2.88,3.696-4.992,4.848-2.08,1.12-4.416,1.68-7.008,1.68Zm0-5.856c1.216,0,2.352-.288,3.408-.864c1.088-.608,1.952-1.504,2.592-2.688s.96-2.624.96-4.32c0-2.528-.672-4.464-2.016-5.808-1.312-1.376-2.928-2.064-4.848-2.064s-3.536.688-4.848,2.064c-1.28,1.344-1.92,3.28-1.92,5.808s.624,4.48,1.872,5.856c1.28,1.344,2.88,2.016,4.8,2.016Zm26.818-21.6c1.984,0,3.728.4,5.232,1.2c1.504.768,2.688,1.776,3.552,3.024v-3.792h6.768v26.784c0,2.464-.496,4.656-1.488,6.576-.992,1.952-2.48,3.488-4.464,4.608-1.984,1.152-4.384,1.728-7.2,1.728-3.776,0-6.88-.88-9.312-2.64-2.4-1.76-3.76-4.16-4.08-7.2h6.672c.352,1.216,1.104,2.176,2.256,2.88c1.184.736,2.608,1.104,4.272,1.104c1.952,0,3.536-.592,4.752-1.776c1.216-1.152,1.824-2.912,1.824-5.28v-4.128c-.864,1.248-2.064,2.288-3.6,3.12-1.504.832-3.232,1.248-5.184,1.248-2.24,0-4.288-.576-6.144-1.728s-3.328-2.768-4.416-4.848c-1.056-2.112-1.584-4.528-1.584-7.248c0-2.688.528-5.072,1.584-7.152c1.088-2.08,2.544-3.68,4.368-4.8c1.856-1.12,3.92-1.68,6.192-1.68Zm8.784,13.728c0-1.632-.32-3.024-.96-4.176-.64-1.184-1.504-2.08-2.592-2.688-1.088-.64-2.256-.96-3.504-.96s-2.4.304-3.456.912-1.92,1.504-2.592,2.688c-.64,1.152-.96,2.528-.96,4.128s.32,3.008.96,4.224c.672,1.184,1.536,2.096,2.592,2.736c1.088.64,2.24.96,3.456.96c1.248,0,2.416-.304,3.504-.912c1.088-.64,1.952-1.536,2.592-2.688.64-1.184.96-2.592.96-4.224Zm17.651-22.224v35.52h-6.72v-35.52h6.72Zm28.959,21.648c0,.96-.064,1.824-.192,2.592h-19.44c.16,1.92.832,3.424,2.016,4.512s2.64,1.632,4.368,1.632c2.496,0,4.272-1.072,5.328-3.216h7.248c-.768,2.56-2.24,4.672-4.416,6.336-2.176,1.632-4.848,2.448-8.016,2.448-2.56,0-4.864-.56-6.912-1.68-2.016-1.152-3.6-2.768-4.752-4.848-1.12-2.08-1.68-4.48-1.68-7.2c0-2.752.56-5.168,1.68-7.248s2.688-3.68,4.704-4.8s4.336-1.68,6.96-1.68c2.528,0,4.784.544,6.768,1.632c2.016,1.088,3.568,2.64,4.656,4.656c1.12,1.984,1.68,4.272,1.68,6.864Zm-6.96-1.92c-.032-1.728-.656-3.104-1.872-4.128-1.216-1.056-2.704-1.584-4.464-1.584-1.664,0-3.072.512-4.224,1.536-1.12.992-1.808,2.384-2.064,4.176h12.624ZM797.516,299.004c1.045.187,1.932.737,2.66,1.652s1.092,1.951,1.092,3.108c0,.989-.261,1.885-.784,2.688-.504.784-1.241,1.409-2.212,1.876-.971.448-2.1.672-3.388.672h-7.784v-19.46h7.42c1.325,0,2.464.224,3.416.672s1.671,1.055,2.156,1.82c.485.747.728,1.587.728,2.52c0,1.12-.299,2.053-.896,2.8s-1.4,1.297-2.408,1.652Zm-7.224-1.288h3.948c1.045,0,1.857-.233,2.436-.7.597-.485.896-1.176.896-2.072c0-.877-.299-1.559-.896-2.044-.579-.504-1.391-.756-2.436-.756h-3.948v5.572Zm4.312,8.68c1.083,0,1.932-.261,2.548-.784s.924-1.251.924-2.184c0-.952-.327-1.708-.98-2.268s-1.521-.84-2.604-.84h-4.2v6.076h4.312Zm11.757-14.868c-.579,0-1.064-.196-1.456-.588s-.588-.877-.588-1.456.196-1.064.588-1.456.877-.588,1.456-.588c.56,0,1.036.196,1.428.588s.588.877.588,1.456-.196,1.064-.588,1.456-.868.588-1.428.588Zm1.568,2.044v15.428h-3.192v-15.428h3.192Zm10.407-.252c1.194,0,2.249.243,3.164.728.933.467,1.661,1.055,2.184,1.764v-2.24h3.22v15.68c0,1.419-.299,2.679-.896,3.78-.598,1.12-1.466,1.997-2.604,2.632-1.12.635-2.464.952-4.032.952-2.091,0-3.827-.495-5.208-1.484-1.382-.971-2.166-2.296-2.352-3.976h3.164c.242.803.756,1.447,1.54,1.932.802.504,1.754.756,2.856.756c1.288,0,2.324-.392,3.108-1.176.802-.784,1.204-1.923,1.204-3.416v-2.576c-.542.728-1.279,1.344-2.212,1.848-.915.485-1.96.728-3.136.728-1.344,0-2.576-.336-3.696-1.008-1.102-.691-1.979-1.643-2.632-2.856-.635-1.232-.952-2.623-.952-4.172s.317-2.921.952-4.116c.653-1.195,1.53-2.119,2.632-2.772c1.12-.672,2.352-1.008,3.696-1.008Zm5.348,7.952c0-1.064-.224-1.988-.672-2.772-.43-.784-.999-1.381-1.708-1.792-.71-.411-1.475-.616-2.296-.616-.822,0-1.587.205-2.296.616-.71.392-1.288.98-1.736,1.764-.43.765-.644,1.68-.644,2.744s.214,1.997.644,2.8c.448.803,1.026,1.419,1.736,1.848.728.411,1.493.616,2.296.616.821,0,1.586-.205,2.296-.616.709-.411,1.278-1.008,1.708-1.792.448-.803.672-1.736.672-2.8Zm29.75,11.256l-3.416-3.696c-.84.243-1.764.364-2.772.364-1.811,0-3.482-.42-5.012-1.26-1.512-.859-2.716-2.044-3.612-3.556-.878-1.531-1.316-3.248-1.316-5.152s.438-3.612,1.316-5.124c.896-1.512,2.1-2.688,3.612-3.528c1.53-.859,3.201-1.288,5.012-1.288c1.829,0,3.5.429,5.012,1.288c1.53.84,2.734,2.016,3.612,3.528.877,1.512,1.316,3.22,1.316,5.124c0,1.792-.392,3.416-1.176,4.872-.766,1.437-1.83,2.595-3.192,3.472l4.676,4.956h-4.06Zm-12.852-13.3c0,1.437.28,2.707.84,3.808.578,1.083,1.372,1.923,2.38,2.52c1.008.579,2.156.868,3.444.868s2.436-.289,3.444-.868c1.008-.597,1.792-1.437,2.352-2.52.578-1.101.868-2.371.868-3.808s-.29-2.697-.868-3.78c-.56-1.083-1.344-1.913-2.352-2.492s-2.156-.868-3.444-.868-2.436.289-3.444.868-1.802,1.409-2.38,2.492c-.56,1.083-.84,2.343-.84,3.78Zm33.799-5.656v15.428h-3.192v-1.82c-.504.635-1.167,1.139-1.988,1.512-.803.355-1.662.532-2.576.532-1.214,0-2.306-.252-3.276-.756-.952-.504-1.708-1.251-2.268-2.24-.542-.989-.812-2.184-.812-3.584v-9.072h3.164v8.596c0,1.381.345,2.445,1.036,3.192.69.728,1.633,1.092,2.828,1.092c1.194,0,2.137-.364,2.828-1.092.709-.747,1.064-1.811,1.064-3.192v-8.596h3.192Zm18.351,7.336c0,.579-.037,1.101-.112,1.568h-11.788c.094,1.232.551,2.221,1.372,2.968.822.747,1.83,1.12,3.024,1.12c1.718,0,2.931-.719,3.64-2.156h3.444c-.466,1.419-1.316,2.585-2.548,3.5-1.213.896-2.725,1.344-4.536,1.344-1.474,0-2.8-.327-3.976-.98-1.157-.672-2.072-1.605-2.744-2.8-.653-1.213-.98-2.613-.98-4.2s.318-2.977.952-4.172c.654-1.213,1.559-2.147,2.716-2.8c1.176-.653,2.52-.98,4.032-.98c1.456,0,2.754.317,3.892.952c1.139.635,2.026,1.531,2.66,2.688.635,1.139.952,2.455.952,3.948ZM889.4,299.9c-.018-1.176-.438-2.119-1.26-2.828-.821-.709-1.838-1.064-3.052-1.064-1.101,0-2.044.355-2.828,1.064-.784.691-1.25,1.633-1.4,2.828h8.54Zm9.665-4.088c.467-.784,1.083-1.391,1.848-1.82.784-.448,1.708-.672,2.772-.672v3.304h-.812c-1.25,0-2.202.317-2.856.952-.634.635-.952,1.736-.952,3.304v8.12h-3.192v-15.428h3.192v2.24Zm21.443-2.24l-9.464,22.68h-3.304l3.136-7.504-6.076-15.176h3.556l4.34,11.76l4.508-11.76h3.304Z" fill="#b5b5b5"/><g clip-path="url(#e9psjZIAmTH37)"><g><path d="M685.924,67.2086l-25.886-44.837c-1.384-2.3948-1.384-5.3475,0-7.7424l25.886-44.8351c1.381-2.393,3.932-3.8675,6.693-3.8712h51.797c2.752.013,5.29,1.4875,6.666,3.8712l25.882,44.8351c1.384,2.3949,1.384,5.3476,0,7.7424l-25.886,44.837c-1.381,2.393-3.932,3.8675-6.694,3.8712h-51.783c-2.758-.0093-5.299-1.4838-6.681-3.8712h.006Z" fill="#cfcfcf"/><path d="M734.671,4.06152c0,0,7.196,17.26058-2.614,27.04458s-27.673,3.5217-27.673,3.5217L740.72,71.0641h3.689c2.763-.0037,5.314-1.4801,6.693-3.8712L768.238,37.521L734.671,4.06152Z" opacity="0.1"/><path d="M743.168,39.3805l-7.934-7.9525c-.086-.0886-.185-.1638-.293-.2231c3.374-4.347,4.965-9.8171,4.447-15.2959s-3.105-10.55404-7.235-14.19171c-4.129-3.63767-9.49-5.56406-14.99-5.38671-5.501.17735-10.727,2.44511-14.613,6.34124-3.887,3.89614-6.142,9.12748-6.306,14.62828-.163,5.5008,1.776,10.8571,5.424,14.9776s8.729,6.6953,14.209,7.1997s10.947-1.0995,15.285-4.485c.057.1024.128.1963.21.2789l7.953,7.9526c.234.2333.55.3644.88.3644.331,0,.647-.1311.881-.3644l2.082-2.0825c.234-.2336.365-.5503.365-.8805s-.131-.6468-.365-.8804v0Zm-25.337-5.143c-3.218.0004-6.364-.9536-9.04-2.7411s-4.761-4.3285-5.993-7.3015-1.554-6.2443-.926-9.4005c.627-3.1562,2.177-6.05528,4.452-8.33072c2.276-2.27545,5.175-3.82501,8.331-4.45271s6.428-.30536,9.401.92627s5.514,3.31723,7.301,5.99303c1.788,2.67583,2.742,5.82163,2.741,9.03953c0,4.3143-1.714,8.4518-4.765,11.5025s-7.188,4.7647-11.502,4.7652v0Zm-10.4-17.136v6.7235c1.036,1.8278,2.534,3.3525,4.347,4.416v-11.1804l-4.347.0409Zm8.135-5.5744v18.1698c1.437.2648,2.91.2648,4.347,0v-18.1698h-4.347Zm12.577,12.283v-3.9828h-4.344v8.3672c1.811-1.0607,3.31-2.5793,4.347-4.403l-.003.0186Z" fill="#fff"/></g><clipPath id="e9psjZIAmTH37"><rect width="119" height="119" rx="0" ry="0" transform="translate(659-41)" fill="#fff"/></clipPath></g><path d="M818.64,-8.424c-.768-1.408-1.824-2.48-3.168-3.216s-2.912-1.104-4.704-1.104c-1.984,0-3.744.448-5.28,1.344s-2.736,2.176-3.6,3.84-1.296,3.584-1.296,5.76c0,2.24.432,4.192,1.296,5.856.896,1.664,2.128,2.944,3.696,3.84s3.392,1.344,5.472,1.344c2.56,0,4.656-.672,6.288-2.016c1.632-1.376,2.704-3.28,3.216-5.712h-11.52v-5.136h18.144v5.856c-.448,2.336-1.408,4.496-2.88,6.48s-3.376,3.584-5.712,4.8c-2.304,1.184-4.896,1.776-7.776,1.776-3.232,0-6.16-.72-8.784-2.16-2.592-1.472-4.64-3.504-6.144-6.096-1.472-2.592-2.208-5.536-2.208-8.832s.736-6.24,2.208-8.832c1.504-2.624,3.552-4.656,6.144-6.096c2.624-1.472,5.536-2.208,8.736-2.208c3.776,0,7.056.928,9.84,2.784c2.784,1.824,4.704,4.4,5.76,7.728h-7.728Zm22.924,23.856c-2.56,0-4.864-.56-6.912-1.68-2.048-1.152-3.664-2.768-4.848-4.848-1.152-2.08-1.728-4.48-1.728-7.2s.592-5.12,1.776-7.2c1.216-2.08,2.864-3.68,4.944-4.8c2.08-1.152,4.4-1.728,6.96-1.728s4.88.576,6.96,1.728c2.08,1.12,3.712,2.72,4.896,4.8c1.216,2.08,1.824,4.48,1.824,7.2s-.624,5.12-1.872,7.2c-1.216,2.08-2.88,3.696-4.992,4.848-2.08,1.12-4.416,1.68-7.008,1.68Zm0-5.856c1.216,0,2.352-.288,3.408-.864c1.088-.608,1.952-1.504,2.592-2.688s.96-2.624.96-4.32c0-2.528-.672-4.464-2.016-5.808-1.312-1.376-2.928-2.064-4.848-2.064s-3.536.688-4.848,2.064c-1.28,1.344-1.92,3.28-1.92,5.808s.624,4.48,1.872,5.856c1.28,1.344,2.88,2.016,4.8,2.016Zm28.209,5.856c-2.56,0-4.864-.56-6.912-1.68-2.048-1.152-3.664-2.768-4.848-4.848-1.152-2.08-1.728-4.48-1.728-7.2s.592-5.12,1.776-7.2c1.216-2.08,2.864-3.68,4.944-4.8c2.08-1.152,4.4-1.728,6.96-1.728s4.88.576,6.96,1.728c2.08,1.12,3.712,2.72,4.896,4.8c1.216,2.08,1.824,4.48,1.824,7.2s-.624,5.12-1.872,7.2c-1.216,2.08-2.88,3.696-4.992,4.848-2.08,1.12-4.416,1.68-7.008,1.68Zm0-5.856c1.216,0,2.352-.288,3.408-.864c1.088-.608,1.952-1.504,2.592-2.688s.96-2.624.96-4.32c0-2.528-.672-4.464-2.016-5.808-1.312-1.376-2.928-2.064-4.848-2.064s-3.536.688-4.848,2.064c-1.28,1.344-1.92,3.28-1.92,5.808s.624,4.48,1.872,5.856c1.28,1.344,2.88,2.016,4.8,2.016Zm26.818-21.6c1.984,0,3.728.4,5.232,1.2c1.504.768,2.688,1.776,3.552,3.024v-3.792h6.768v26.784c0,2.464-.496,4.656-1.488,6.576-.992,1.952-2.48,3.488-4.464,4.608-1.984,1.152-4.384,1.728-7.2,1.728-3.776,0-6.88-.88-9.312-2.64-2.4-1.76-3.76-4.16-4.08-7.2h6.672c.352,1.216,1.104,2.176,2.256,2.88c1.184.736,2.608,1.104,4.272,1.104c1.952,0,3.536-.592,4.752-1.776c1.216-1.152,1.824-2.912,1.824-5.28v-4.128c-.864,1.248-2.064,2.288-3.6,3.12-1.504.832-3.232,1.248-5.184,1.248-2.24,0-4.288-.576-6.144-1.728s-3.328-2.768-4.416-4.848c-1.056-2.112-1.584-4.528-1.584-7.248c0-2.688.528-5.072,1.584-7.152c1.088-2.08,2.544-3.68,4.368-4.8c1.856-1.12,3.92-1.68,6.192-1.68Zm8.784,13.728c0-1.632-.32-3.024-.96-4.176-.64-1.184-1.504-2.08-2.592-2.688-1.088-.64-2.256-.96-3.504-.96s-2.4.304-3.456.912-1.92,1.504-2.592,2.688c-.64,1.152-.96,2.527999-.96,4.128s.32,3.008.96,4.224c.672,1.184,1.536,2.096,2.592,2.736c1.088.64,2.24.96,3.456.96c1.248,0,2.416-.304,3.504-.912c1.088-.64,1.952-1.536,2.592-2.688.64-1.184.96-2.592.96-4.224Zm17.651-22.224v35.52h-6.72v-35.52h6.72ZM951.985,1.128c0,.96-.064,1.824-.192,2.592h-19.44c.16,1.92.832,3.424,2.016,4.512s2.64,1.632,4.368,1.632c2.496,0,4.272-1.072,5.328-3.216h7.248c-.768,2.56-2.24,4.672-4.416,6.336-2.176,1.632-4.848,2.448-8.016,2.448-2.56,0-4.864-.56-6.912-1.68-2.016-1.152-3.6-2.768-4.752-4.848-1.12-2.08-1.68-4.48-1.68-7.2c0-2.752.56-5.168,1.68-7.248s2.688-3.68,4.704-4.8s4.336-1.68,6.96-1.68c2.528,0,4.784.544,6.768,1.632c2.016,1.088,3.568,2.64,4.656,4.656c1.12,1.984,1.68,4.272,1.68,6.864Zm-6.96-1.920001C944.993,-2.52,944.369,-3.896,943.153,-4.92c-1.216-1.056-2.704-1.584-4.464-1.584-1.664,0-3.072.512-4.224,1.536-1.12.992-1.808,2.384-2.064,4.175999h12.624ZM804.516,40.004c1.045.1867,1.932.7373,2.66,1.652s1.092,1.9507,1.092,3.108c0,.9893-.261,1.8853-.784,2.688-.504.784-1.241,1.4093-2.212,1.876-.971.448-2.1.672-3.388.672h-7.784v-19.46h7.42c1.325,0,2.464.224,3.416.672s1.671,1.0547,2.156,1.82c.485.7467.728,1.5867.728,2.52c0,1.12-.299,2.0533-.896,2.8s-1.4,1.2973-2.408,1.652Zm-7.224-1.288h3.948c1.045,0,1.857-.2333,2.436-.7.597-.4853.896-1.176.896-2.072c0-.8773-.299-1.5587-.896-2.044-.579-.504-1.391-.756-2.436-.756h-3.948v5.572Zm4.312,8.68c1.083,0,1.932-.2613,2.548-.784s.924-1.2507.924-2.184c0-.952-.327-1.708-.98-2.268s-1.521-.84-2.604-.84h-4.2v6.076h4.312Zm11.757-14.868c-.579,0-1.064-.196-1.456-.588s-.588-.8773-.588-1.456.196-1.064.588-1.456.877-.588,1.456-.588c.56,0,1.036.196,1.428.588s.588.8773.588,1.456-.196,1.064-.588,1.456-.868.588-1.428.588Zm1.568,2.044v15.428h-3.192v-15.428h3.192Zm10.407-.252c1.194,0,2.249.2427,3.164.728.933.4667,1.661,1.0547,2.184,1.764v-2.24h3.22v15.68c0,1.4187-.299,2.6787-.896,3.78-.598,1.12-1.466,1.9973-2.604,2.632-1.12.6347-2.464.952-4.032.952-2.091,0-3.827-.4947-5.208-1.484-1.382-.9707-2.166-2.296-2.352-3.976h3.164c.242.8027.756,1.4467,1.54,1.932.802.504,1.754.756,2.856.756c1.288,0,2.324-.392,3.108-1.176.802-.784,1.204-1.9227,1.204-3.416v-2.576c-.542.728-1.279,1.344-2.212,1.848-.915.4853-1.96.728-3.136.728-1.344,0-2.576-.336-3.696-1.008-1.102-.6907-1.979-1.6427-2.632-2.856-.635-1.232-.952-2.6227-.952-4.172s.317-2.9213.952-4.116c.653-1.1947,1.53-2.1187,2.632-2.772c1.12-.672,2.352-1.008,3.696-1.008Zm5.348,7.952c0-1.064-.224-1.988-.672-2.772-.43-.784-.999-1.3813-1.708-1.792-.71-.4107-1.475-.616-2.296-.616-.822,0-1.587.2053-2.296.616-.71.392-1.288.98-1.736,1.764-.43.7653-.644,1.68-.644,2.744s.214,1.9973.644,2.8c.448.8027,1.026,1.4187,1.736,1.848.728.4107,1.493.616,2.296.616.821,0,1.586-.2053,2.296-.616.709-.4107,1.278-1.008,1.708-1.792.448-.8027.672-1.736.672-2.8Zm29.75,11.256l-3.416-3.696c-.84.2427-1.764.364-2.772.364-1.811,0-3.482-.42-5.012-1.26-1.512-.8587-2.716-2.044-3.612-3.556-.878-1.5307-1.316-3.248-1.316-5.152s.438-3.612,1.316-5.124c.896-1.512,2.1-2.688,3.612-3.528c1.53-.8587,3.201-1.288,5.012-1.288c1.829,0,3.5.4293,5.012,1.288c1.53.84,2.734,2.016,3.612,3.528.877,1.512,1.316,3.22,1.316,5.124c0,1.792-.392,3.416-1.176,4.872-.766,1.4373-1.83,2.5947-3.192,3.472l4.676,4.956h-4.06Zm-12.852-13.3c0,1.4373.28,2.7067.84,3.808.578,1.0827,1.372,1.9227,2.38,2.52c1.008.5787,2.156.868,3.444.868s2.436-.2893,3.444-.868c1.008-.5973,1.792-1.4373,2.352-2.52.578-1.1013.868-2.3707.868-3.808s-.29-2.6973-.868-3.78c-.56-1.0827-1.344-1.9133-2.352-2.492s-2.156-.868-3.444-.868-2.436.2893-3.444.868-1.802,1.4093-2.38,2.492c-.56,1.0827-.84,2.3427-.84,3.78Zm33.799-5.656v15.428h-3.192v-1.82c-.504.6347-1.167,1.1387-1.988,1.512-.803.3547-1.662.532-2.576.532-1.214,0-2.306-.252-3.276-.756-.952-.504-1.708-1.2507-2.268-2.24-.542-.9893-.812-2.184-.812-3.584v-9.072h3.164v8.596c0,1.3813.345,2.4453,1.036,3.192.69.728,1.633,1.092,2.828,1.092c1.194,0,2.137-.364,2.828-1.092.709-.7467,1.064-1.8107,1.064-3.192v-8.596h3.192Zm18.351,7.336c0,.5787-.037,1.1013-.112,1.568h-11.788c.094,1.232.551,2.2213,1.372,2.968.822.7467,1.83,1.12,3.024,1.12c1.718,0,2.931-.7187,3.64-2.156h3.444c-.466,1.4187-1.316,2.5853-2.548,3.5-1.213.896-2.725,1.344-4.536,1.344-1.474,0-2.8-.3267-3.976-.98-1.157-.672-2.072-1.6053-2.744-2.8-.653-1.2133-.98-2.6133-.98-4.2s.318-2.9773.952-4.172c.654-1.2133,1.559-2.1467,2.716-2.8c1.176-.6533,2.52-.98,4.032-.98c1.456,0,2.754.3173,3.892.952c1.139.6347,2.026,1.5307,2.66,2.688.635,1.1387.952,2.4547.952,3.948ZM896.4,40.9c-.018-1.176-.438-2.1187-1.26-2.828-.821-.7093-1.838-1.064-3.052-1.064-1.101,0-2.044.3547-2.828,1.064-.784.6907-1.25,1.6333-1.4,2.828h8.54Zm9.665-4.088c.467-.784,1.083-1.3907,1.848-1.82.784-.448,1.708-.672,2.772-.672v3.304h-.812c-1.25,0-2.202.3173-2.856.952-.634.6347-.952,1.736-.952,3.304v8.12h-3.192v-15.428h3.192v2.24Zm21.443-2.24l-9.464,22.68h-3.304l3.136-7.504L911.8,34.572h3.556l4.34,11.76l4.508-11.76h3.304Z" fill="#b5b5b5"/><g clip-path="url(#e9psjZIAmTH45)"><g><path d="M678.924,580.209l-25.886-44.837c-1.384-2.395-1.384-5.348,0-7.743l25.886-44.835c1.381-2.393,3.932-3.867,6.693-3.871h51.797c2.752.013,5.29,1.487,6.666,3.871l25.882,44.835c1.384,2.395,1.384,5.348,0,7.743l-25.886,44.837c-1.381,2.393-3.932,3.867-6.694,3.871h-51.783c-2.758-.009-5.299-1.484-6.681-3.871h.006Z" fill="#cfcfcf"/><path d="M727.671,517.062c0,0,7.196,17.26-2.614,27.044s-27.673,3.522-27.673,3.522l36.336,36.436h3.689c2.763-.004,5.314-1.48,6.693-3.871l17.136-29.672-33.567-33.459Z" opacity="0.1"/><path d="M736.168,552.381l-7.934-7.953c-.086-.089-.185-.164-.293-.223c3.374-4.347,4.965-9.817,4.447-15.296s-3.105-10.554-7.235-14.192c-4.129-3.637-9.49-5.564-14.99-5.386-5.501.177-10.727,2.445-14.613,6.341-3.887,3.896-6.142,9.127-6.306,14.628-.163,5.501,1.776,10.857,5.424,14.978c3.648,4.12,8.729,6.695,14.209,7.199c5.48.505,10.947-1.099,15.285-4.485.057.103.128.197.21.279l7.953,7.953c.234.233.55.364.88.364.331,0,.647-.131.881-.364l2.082-2.083c.234-.233.365-.55.365-.88s-.131-.647-.365-.88v0Zm-25.337-5.143c-3.218,0-6.364-.954-9.04-2.742-2.676-1.787-4.761-4.328-5.993-7.301s-1.554-6.244-.926-9.401c.627-3.156,2.177-6.055,4.452-8.33c2.276-2.276,5.175-3.825,8.331-4.453s6.428-.305,9.401.926c2.973,1.232,5.514,3.317,7.301,5.993c1.788,2.676,2.742,5.822,2.741,9.04c0,4.314-1.714,8.452-4.765,11.502-3.051,3.051-7.188,4.765-11.502,4.766v0Zm-10.4-17.136v6.723c1.036,1.828,2.534,3.352,4.347,4.416v-11.18l-4.347.041Zm8.135-5.575v18.17c1.437.265,2.91.265,4.347,0v-18.17h-4.347Zm12.577,12.283v-3.983h-4.344v8.368c1.811-1.061,3.31-2.58,4.347-4.403l-.003.018Z" fill="#fff"/></g><clipPath id="e9psjZIAmTH45"><rect width="119" height="119" rx="0" ry="0" transform="translate(652 472)" fill="#fff"/></clipPath></g><path d="M811.64,504.576c-.768-1.408-1.824-2.48-3.168-3.216s-2.912-1.104-4.704-1.104c-1.984,0-3.744.448-5.28,1.344s-2.736,2.176-3.6,3.84-1.296,3.584-1.296,5.76c0,2.24.432,4.192,1.296,5.856.896,1.664,2.128,2.944,3.696,3.84s3.392,1.344,5.472,1.344c2.56,0,4.656-.672,6.288-2.016c1.632-1.376,2.704-3.28,3.216-5.712h-11.52v-5.136h18.144v5.856c-.448,2.336-1.408,4.496-2.88,6.48s-3.376,3.584-5.712,4.8c-2.304,1.184-4.896,1.776-7.776,1.776-3.232,0-6.16-.72-8.784-2.16-2.592-1.472-4.64-3.504-6.144-6.096-1.472-2.592-2.208-5.536-2.208-8.832s.736-6.24,2.208-8.832c1.504-2.624,3.552-4.656,6.144-6.096c2.624-1.472,5.536-2.208,8.736-2.208c3.776,0,7.056.928,9.84,2.784c2.784,1.824,4.704,4.4,5.76,7.728h-7.728Zm22.924,23.856c-2.56,0-4.864-.56-6.912-1.68-2.048-1.152-3.664-2.768-4.848-4.848-1.152-2.08-1.728-4.48-1.728-7.2s.592-5.12,1.776-7.2c1.216-2.08,2.864-3.68,4.944-4.8c2.08-1.152,4.4-1.728,6.96-1.728s4.88.576,6.96,1.728c2.08,1.12,3.712,2.72,4.896,4.8c1.216,2.08,1.824,4.48,1.824,7.2s-.624,5.12-1.872,7.2c-1.216,2.08-2.88,3.696-4.992,4.848-2.08,1.12-4.416,1.68-7.008,1.68Zm0-5.856c1.216,0,2.352-.288,3.408-.864c1.088-.608,1.952-1.504,2.592-2.688s.96-2.624.96-4.32c0-2.528-.672-4.464-2.016-5.808-1.312-1.376-2.928-2.064-4.848-2.064s-3.536.688-4.848,2.064c-1.28,1.344-1.92,3.28-1.92,5.808s.624,4.48,1.872,5.856c1.28,1.344,2.88,2.016,4.8,2.016Zm28.209,5.856c-2.56,0-4.864-.56-6.912-1.68-2.048-1.152-3.664-2.768-4.848-4.848-1.152-2.08-1.728-4.48-1.728-7.2s.592-5.12,1.776-7.2c1.216-2.08,2.864-3.68,4.944-4.8c2.08-1.152,4.4-1.728,6.96-1.728s4.88.576,6.96,1.728c2.08,1.12,3.712,2.72,4.896,4.8c1.216,2.08,1.824,4.48,1.824,7.2s-.624,5.12-1.872,7.2c-1.216,2.08-2.88,3.696-4.992,4.848-2.08,1.12-4.416,1.68-7.008,1.68Zm0-5.856c1.216,0,2.352-.288,3.408-.864c1.088-.608,1.952-1.504,2.592-2.688s.96-2.624.96-4.32c0-2.528-.672-4.464-2.016-5.808-1.312-1.376-2.928-2.064-4.848-2.064s-3.536.688-4.848,2.064c-1.28,1.344-1.92,3.28-1.92,5.808s.624,4.48,1.872,5.856c1.28,1.344,2.88,2.016,4.8,2.016Zm26.818-21.6c1.984,0,3.728.4,5.232,1.2c1.504.768,2.688,1.776,3.552,3.024v-3.792h6.768v26.784c0,2.464-.496,4.656-1.488,6.576-.992,1.952-2.48,3.488-4.464,4.608-1.984,1.152-4.384,1.728-7.2,1.728-3.776,0-6.88-.88-9.312-2.64-2.4-1.76-3.76-4.16-4.08-7.2h6.672c.352,1.216,1.104,2.176,2.256,2.88c1.184.736,2.608,1.104,4.272,1.104c1.952,0,3.536-.592,4.752-1.776c1.216-1.152,1.824-2.912,1.824-5.28v-4.128c-.864,1.248-2.064,2.288-3.6,3.12-1.504.832-3.232,1.248-5.184,1.248-2.24,0-4.288-.576-6.144-1.728s-3.328-2.768-4.416-4.848c-1.056-2.112-1.584-4.528-1.584-7.248c0-2.688.528-5.072,1.584-7.152c1.088-2.08,2.544-3.68,4.368-4.8c1.856-1.12,3.92-1.68,6.192-1.68Zm8.784,13.728c0-1.632-.32-3.024-.96-4.176-.64-1.184-1.504-2.08-2.592-2.688-1.088-.64-2.256-.96-3.504-.96s-2.4.304-3.456.912-1.92,1.504-2.592,2.688c-.64,1.152-.96,2.528-.96,4.128s.32,3.008.96,4.224c.672,1.184,1.536,2.096,2.592,2.736c1.088.64,2.24.96,3.456.96c1.248,0,2.416-.304,3.504-.912c1.088-.64,1.952-1.536,2.592-2.688.64-1.184.96-2.592.96-4.224Zm17.651-22.224v35.52h-6.72v-35.52h6.72Zm28.959,21.648c0,.96-.064,1.824-.192,2.592h-19.44c.16,1.92.832,3.424,2.016,4.512s2.64,1.632,4.368,1.632c2.496,0,4.272-1.072,5.328-3.216h7.248c-.768,2.56-2.24,4.672-4.416,6.336-2.176,1.632-4.848,2.448-8.016,2.448-2.56,0-4.864-.56-6.912-1.68-2.016-1.152-3.6-2.768-4.752-4.848-1.12-2.08-1.68-4.48-1.68-7.2c0-2.752.56-5.168,1.68-7.248s2.688-3.68,4.704-4.8s4.336-1.68,6.96-1.68c2.528,0,4.784.544,6.768,1.632c2.016,1.088,3.568,2.64,4.656,4.656c1.12,1.984,1.68,4.272,1.68,6.864Zm-6.96-1.92c-.032-1.728-.656-3.104-1.872-4.128-1.216-1.056-2.704-1.584-4.464-1.584-1.664,0-3.072.512-4.224,1.536-1.12.992-1.808,2.384-2.064,4.176h12.624ZM797.516,553.004c1.045.187,1.932.737,2.66,1.652s1.092,1.951,1.092,3.108c0,.989-.261,1.885-.784,2.688-.504.784-1.241,1.409-2.212,1.876-.971.448-2.1.672-3.388.672h-7.784v-19.46h7.42c1.325,0,2.464.224,3.416.672s1.671,1.055,2.156,1.82c.485.747.728,1.587.728,2.52c0,1.12-.299,2.053-.896,2.8s-1.4,1.297-2.408,1.652Zm-7.224-1.288h3.948c1.045,0,1.857-.233,2.436-.7.597-.485.896-1.176.896-2.072c0-.877-.299-1.559-.896-2.044-.579-.504-1.391-.756-2.436-.756h-3.948v5.572Zm4.312,8.68c1.083,0,1.932-.261,2.548-.784s.924-1.251.924-2.184c0-.952-.327-1.708-.98-2.268s-1.521-.84-2.604-.84h-4.2v6.076h4.312Zm11.757-14.868c-.579,0-1.064-.196-1.456-.588s-.588-.877-.588-1.456.196-1.064.588-1.456.877-.588,1.456-.588c.56,0,1.036.196,1.428.588s.588.877.588,1.456-.196,1.064-.588,1.456-.868.588-1.428.588Zm1.568,2.044v15.428h-3.192v-15.428h3.192Zm10.407-.252c1.194,0,2.249.243,3.164.728.933.467,1.661,1.055,2.184,1.764v-2.24h3.22v15.68c0,1.419-.299,2.679-.896,3.78-.598,1.12-1.466,1.997-2.604,2.632-1.12.635-2.464.952-4.032.952-2.091,0-3.827-.495-5.208-1.484-1.382-.971-2.166-2.296-2.352-3.976h3.164c.242.803.756,1.447,1.54,1.932.802.504,1.754.756,2.856.756c1.288,0,2.324-.392,3.108-1.176.802-.784,1.204-1.923,1.204-3.416v-2.576c-.542.728-1.279,1.344-2.212,1.848-.915.485-1.96.728-3.136.728-1.344,0-2.576-.336-3.696-1.008-1.102-.691-1.979-1.643-2.632-2.856-.635-1.232-.952-2.623-.952-4.172s.317-2.921.952-4.116c.653-1.195,1.53-2.119,2.632-2.772c1.12-.672,2.352-1.008,3.696-1.008Zm5.348,7.952c0-1.064-.224-1.988-.672-2.772-.43-.784-.999-1.381-1.708-1.792-.71-.411-1.475-.616-2.296-.616-.822,0-1.587.205-2.296.616-.71.392-1.288.98-1.736,1.764-.43.765-.644,1.68-.644,2.744s.214,1.997.644,2.8c.448.803,1.026,1.419,1.736,1.848.728.411,1.493.616,2.296.616.821,0,1.586-.205,2.296-.616.709-.411,1.278-1.008,1.708-1.792.448-.803.672-1.736.672-2.8Zm29.75,11.256l-3.416-3.696c-.84.243-1.764.364-2.772.364-1.811,0-3.482-.42-5.012-1.26-1.512-.859-2.716-2.044-3.612-3.556-.878-1.531-1.316-3.248-1.316-5.152s.438-3.612,1.316-5.124c.896-1.512,2.1-2.688,3.612-3.528c1.53-.859,3.201-1.288,5.012-1.288c1.829,0,3.5.429,5.012,1.288c1.53.84,2.734,2.016,3.612,3.528.877,1.512,1.316,3.22,1.316,5.124c0,1.792-.392,3.416-1.176,4.872-.766,1.437-1.83,2.595-3.192,3.472l4.676,4.956h-4.06Zm-12.852-13.3c0,1.437.28,2.707.84,3.808.578,1.083,1.372,1.923,2.38,2.52c1.008.579,2.156.868,3.444.868s2.436-.289,3.444-.868c1.008-.597,1.792-1.437,2.352-2.52.578-1.101.868-2.371.868-3.808s-.29-2.697-.868-3.78c-.56-1.083-1.344-1.913-2.352-2.492s-2.156-.868-3.444-.868-2.436.289-3.444.868-1.802,1.409-2.38,2.492c-.56,1.083-.84,2.343-.84,3.78Zm33.799-5.656v15.428h-3.192v-1.82c-.504.635-1.167,1.139-1.988,1.512-.803.355-1.662.532-2.576.532-1.214,0-2.306-.252-3.276-.756-.952-.504-1.708-1.251-2.268-2.24-.542-.989-.812-2.184-.812-3.584v-9.072h3.164v8.596c0,1.381.345,2.445,1.036,3.192.69.728,1.633,1.092,2.828,1.092c1.194,0,2.137-.364,2.828-1.092.709-.747,1.064-1.811,1.064-3.192v-8.596h3.192Zm18.351,7.336c0,.579-.037,1.101-.112,1.568h-11.788c.094,1.232.551,2.221,1.372,2.968.822.747,1.83,1.12,3.024,1.12c1.718,0,2.931-.719,3.64-2.156h3.444c-.466,1.419-1.316,2.585-2.548,3.5-1.213.896-2.725,1.344-4.536,1.344-1.474,0-2.8-.327-3.976-.98-1.157-.672-2.072-1.605-2.744-2.8-.653-1.213-.98-2.613-.98-4.2s.318-2.977.952-4.172c.654-1.213,1.559-2.147,2.716-2.8c1.176-.653,2.52-.98,4.032-.98c1.456,0,2.754.317,3.892.952c1.139.635,2.026,1.531,2.66,2.688.635,1.139.952,2.455.952,3.948ZM889.4,553.9c-.018-1.176-.438-2.119-1.26-2.828-.821-.709-1.838-1.064-3.052-1.064-1.101,0-2.044.355-2.828,1.064-.784.691-1.25,1.633-1.4,2.828h8.54Zm9.665-4.088c.467-.784,1.083-1.391,1.848-1.82.784-.448,1.708-.672,2.772-.672v3.304h-.812c-1.25,0-2.202.317-2.856.952-.634.635-.952,1.736-.952,3.304v8.12h-3.192v-15.428h3.192v2.24Zm21.443-2.24l-9.464,22.68h-3.304l3.136-7.504-6.076-15.176h3.556l4.34,11.76l4.508-11.76h3.304Z" fill="#b5b5b5"/><g clip-path="url(#e9psjZIAmTH53)"><g><path d="M678.924,834.209l-25.886-44.837c-1.384-2.395-1.384-5.348,0-7.743l25.886-44.835c1.381-2.393,3.932-3.867,6.693-3.871h51.797c2.752.013,5.29,1.487,6.666,3.871l25.882,44.835c1.384,2.395,1.384,5.348,0,7.743l-25.886,44.837c-1.381,2.393-3.932,3.867-6.694,3.871h-51.783c-2.758-.009-5.299-1.484-6.681-3.871h.006Z" fill="#cfcfcf"/><path d="M727.671,771.062c0,0,7.196,17.26-2.614,27.044s-27.673,3.522-27.673,3.522l36.336,36.436h3.689c2.763-.004,5.314-1.48,6.693-3.871l17.136-29.672-33.567-33.459Z" opacity="0.1"/><path d="M736.168,806.381l-7.934-7.953c-.086-.089-.185-.164-.293-.223c3.374-4.347,4.965-9.817,4.447-15.296s-3.105-10.554-7.235-14.192c-4.129-3.637-9.49-5.564-14.99-5.386-5.501.177-10.727,2.445-14.613,6.341-3.887,3.896-6.142,9.127-6.306,14.628-.163,5.501,1.776,10.857,5.424,14.978c3.648,4.12,8.729,6.695,14.209,7.199c5.48.505,10.947-1.099,15.285-4.485.057.103.128.197.21.279l7.953,7.953c.234.233.55.364.88.364.331,0,.647-.131.881-.364l2.082-2.083c.234-.233.365-.55.365-.88s-.131-.647-.365-.88v0Zm-25.337-5.143c-3.218,0-6.364-.954-9.04-2.742-2.676-1.787-4.761-4.328-5.993-7.301s-1.554-6.244-.926-9.401c.627-3.156,2.177-6.055,4.452-8.33c2.276-2.276,5.175-3.825,8.331-4.453s6.428-.305,9.401.926c2.973,1.232,5.514,3.317,7.301,5.993c1.788,2.676,2.742,5.822,2.741,9.04c0,4.314-1.714,8.452-4.765,11.502-3.051,3.051-7.188,4.765-11.502,4.766v0Zm-10.4-17.136v6.723c1.036,1.828,2.534,3.352,4.347,4.416v-11.18l-4.347.041Zm8.135-5.575v18.17c1.437.265,2.91.265,4.347,0v-18.17h-4.347Zm12.577,12.283v-3.983h-4.344v8.368c1.811-1.061,3.31-2.58,4.347-4.403l-.003.018Z" fill="#fff"/></g><clipPath id="e9psjZIAmTH53"><rect width="119" height="119" rx="0" ry="0" transform="translate(652 726)" fill="#fff"/></clipPath></g><path d="M811.64,758.576c-.768-1.408-1.824-2.48-3.168-3.216s-2.912-1.104-4.704-1.104c-1.984,0-3.744.448-5.28,1.344s-2.736,2.176-3.6,3.84-1.296,3.584-1.296,5.76c0,2.24.432,4.192,1.296,5.856.896,1.664,2.128,2.944,3.696,3.84s3.392,1.344,5.472,1.344c2.56,0,4.656-.672,6.288-2.016c1.632-1.376,2.704-3.28,3.216-5.712h-11.52v-5.136h18.144v5.856c-.448,2.336-1.408,4.496-2.88,6.48s-3.376,3.584-5.712,4.8c-2.304,1.184-4.896,1.776-7.776,1.776-3.232,0-6.16-.72-8.784-2.16-2.592-1.472-4.64-3.504-6.144-6.096-1.472-2.592-2.208-5.536-2.208-8.832s.736-6.24,2.208-8.832c1.504-2.624,3.552-4.656,6.144-6.096c2.624-1.472,5.536-2.208,8.736-2.208c3.776,0,7.056.928,9.84,2.784c2.784,1.824,4.704,4.4,5.76,7.728h-7.728Zm22.924,23.856c-2.56,0-4.864-.56-6.912-1.68-2.048-1.152-3.664-2.768-4.848-4.848-1.152-2.08-1.728-4.48-1.728-7.2s.592-5.12,1.776-7.2c1.216-2.08,2.864-3.68,4.944-4.8c2.08-1.152,4.4-1.728,6.96-1.728s4.88.576,6.96,1.728c2.08,1.12,3.712,2.72,4.896,4.8c1.216,2.08,1.824,4.48,1.824,7.2s-.624,5.12-1.872,7.2c-1.216,2.08-2.88,3.696-4.992,4.848-2.08,1.12-4.416,1.68-7.008,1.68Zm0-5.856c1.216,0,2.352-.288,3.408-.864c1.088-.608,1.952-1.504,2.592-2.688s.96-2.624.96-4.32c0-2.528-.672-4.464-2.016-5.808-1.312-1.376-2.928-2.064-4.848-2.064s-3.536.688-4.848,2.064c-1.28,1.344-1.92,3.28-1.92,5.808s.624,4.48,1.872,5.856c1.28,1.344,2.88,2.016,4.8,2.016Zm28.209,5.856c-2.56,0-4.864-.56-6.912-1.68-2.048-1.152-3.664-2.768-4.848-4.848-1.152-2.08-1.728-4.48-1.728-7.2s.592-5.12,1.776-7.2c1.216-2.08,2.864-3.68,4.944-4.8c2.08-1.152,4.4-1.728,6.96-1.728s4.88.576,6.96,1.728c2.08,1.12,3.712,2.72,4.896,4.8c1.216,2.08,1.824,4.48,1.824,7.2s-.624,5.12-1.872,7.2c-1.216,2.08-2.88,3.696-4.992,4.848-2.08,1.12-4.416,1.68-7.008,1.68Zm0-5.856c1.216,0,2.352-.288,3.408-.864c1.088-.608,1.952-1.504,2.592-2.688s.96-2.624.96-4.32c0-2.528-.672-4.464-2.016-5.808-1.312-1.376-2.928-2.064-4.848-2.064s-3.536.688-4.848,2.064c-1.28,1.344-1.92,3.28-1.92,5.808s.624,4.48,1.872,5.856c1.28,1.344,2.88,2.016,4.8,2.016Zm26.818-21.6c1.984,0,3.728.4,5.232,1.2c1.504.768,2.688,1.776,3.552,3.024v-3.792h6.768v26.784c0,2.464-.496,4.656-1.488,6.576-.992,1.952-2.48,3.488-4.464,4.608-1.984,1.152-4.384,1.728-7.2,1.728-3.776,0-6.88-.88-9.312-2.64-2.4-1.76-3.76-4.16-4.08-7.2h6.672c.352,1.216,1.104,2.176,2.256,2.88c1.184.736,2.608,1.104,4.272,1.104c1.952,0,3.536-.592,4.752-1.776c1.216-1.152,1.824-2.912,1.824-5.28v-4.128c-.864,1.248-2.064,2.288-3.6,3.12-1.504.832-3.232,1.248-5.184,1.248-2.24,0-4.288-.576-6.144-1.728s-3.328-2.768-4.416-4.848c-1.056-2.112-1.584-4.528-1.584-7.248c0-2.688.528-5.072,1.584-7.152c1.088-2.08,2.544-3.68,4.368-4.8c1.856-1.12,3.92-1.68,6.192-1.68Zm8.784,13.728c0-1.632-.32-3.024-.96-4.176-.64-1.184-1.504-2.08-2.592-2.688-1.088-.64-2.256-.96-3.504-.96s-2.4.304-3.456.912-1.92,1.504-2.592,2.688c-.64,1.152-.96,2.528-.96,4.128s.32,3.008.96,4.224c.672,1.184,1.536,2.096,2.592,2.736c1.088.64,2.24.96,3.456.96c1.248,0,2.416-.304,3.504-.912c1.088-.64,1.952-1.536,2.592-2.688.64-1.184.96-2.592.96-4.224Zm17.651-22.224v35.52h-6.72v-35.52h6.72Zm28.959,21.648c0,.96-.064,1.824-.192,2.592h-19.44c.16,1.92.832,3.424,2.016,4.512s2.64,1.632,4.368,1.632c2.496,0,4.272-1.072,5.328-3.216h7.248c-.768,2.56-2.24,4.672-4.416,6.336-2.176,1.632-4.848,2.448-8.016,2.448-2.56,0-4.864-.56-6.912-1.68-2.016-1.152-3.6-2.768-4.752-4.848-1.12-2.08-1.68-4.48-1.68-7.2c0-2.752.56-5.168,1.68-7.248s2.688-3.68,4.704-4.8s4.336-1.68,6.96-1.68c2.528,0,4.784.544,6.768,1.632c2.016,1.088,3.568,2.64,4.656,4.656c1.12,1.984,1.68,4.272,1.68,6.864Zm-6.96-1.92c-.032-1.728-.656-3.104-1.872-4.128-1.216-1.056-2.704-1.584-4.464-1.584-1.664,0-3.072.512-4.224,1.536-1.12.992-1.808,2.384-2.064,4.176h12.624ZM797.516,807.004c1.045.187,1.932.737,2.66,1.652s1.092,1.951,1.092,3.108c0,.989-.261,1.885-.784,2.688-.504.784-1.241,1.409-2.212,1.876-.971.448-2.1.672-3.388.672h-7.784v-19.46h7.42c1.325,0,2.464.224,3.416.672s1.671,1.055,2.156,1.82c.485.747.728,1.587.728,2.52c0,1.12-.299,2.053-.896,2.8s-1.4,1.297-2.408,1.652Zm-7.224-1.288h3.948c1.045,0,1.857-.233,2.436-.7.597-.485.896-1.176.896-2.072c0-.877-.299-1.559-.896-2.044-.579-.504-1.391-.756-2.436-.756h-3.948v5.572Zm4.312,8.68c1.083,0,1.932-.261,2.548-.784s.924-1.251.924-2.184c0-.952-.327-1.708-.98-2.268s-1.521-.84-2.604-.84h-4.2v6.076h4.312Zm11.757-14.868c-.579,0-1.064-.196-1.456-.588s-.588-.877-.588-1.456.196-1.064.588-1.456.877-.588,1.456-.588c.56,0,1.036.196,1.428.588s.588.877.588,1.456-.196,1.064-.588,1.456-.868.588-1.428.588Zm1.568,2.044v15.428h-3.192v-15.428h3.192Zm10.407-.252c1.194,0,2.249.243,3.164.728.933.467,1.661,1.055,2.184,1.764v-2.24h3.22v15.68c0,1.419-.299,2.679-.896,3.78-.598,1.12-1.466,1.997-2.604,2.632-1.12.635-2.464.952-4.032.952-2.091,0-3.827-.495-5.208-1.484-1.382-.971-2.166-2.296-2.352-3.976h3.164c.242.803.756,1.447,1.54,1.932.802.504,1.754.756,2.856.756c1.288,0,2.324-.392,3.108-1.176.802-.784,1.204-1.923,1.204-3.416v-2.576c-.542.728-1.279,1.344-2.212,1.848-.915.485-1.96.728-3.136.728-1.344,0-2.576-.336-3.696-1.008-1.102-.691-1.979-1.643-2.632-2.856-.635-1.232-.952-2.623-.952-4.172s.317-2.921.952-4.116c.653-1.195,1.53-2.119,2.632-2.772c1.12-.672,2.352-1.008,3.696-1.008Zm5.348,7.952c0-1.064-.224-1.988-.672-2.772-.43-.784-.999-1.381-1.708-1.792-.71-.411-1.475-.616-2.296-.616-.822,0-1.587.205-2.296.616-.71.392-1.288.98-1.736,1.764-.43.765-.644,1.68-.644,2.744s.214,1.997.644,2.8c.448.803,1.026,1.419,1.736,1.848.728.411,1.493.616,2.296.616.821,0,1.586-.205,2.296-.616.709-.411,1.278-1.008,1.708-1.792.448-.803.672-1.736.672-2.8Zm29.75,11.256l-3.416-3.696c-.84.243-1.764.364-2.772.364-1.811,0-3.482-.42-5.012-1.26-1.512-.859-2.716-2.044-3.612-3.556-.878-1.531-1.316-3.248-1.316-5.152s.438-3.612,1.316-5.124c.896-1.512,2.1-2.688,3.612-3.528c1.53-.859,3.201-1.288,5.012-1.288c1.829,0,3.5.429,5.012,1.288c1.53.84,2.734,2.016,3.612,3.528.877,1.512,1.316,3.22,1.316,5.124c0,1.792-.392,3.416-1.176,4.872-.766,1.437-1.83,2.595-3.192,3.472l4.676,4.956h-4.06Zm-12.852-13.3c0,1.437.28,2.707.84,3.808.578,1.083,1.372,1.923,2.38,2.52c1.008.579,2.156.868,3.444.868s2.436-.289,3.444-.868c1.008-.597,1.792-1.437,2.352-2.52.578-1.101.868-2.371.868-3.808s-.29-2.697-.868-3.78c-.56-1.083-1.344-1.913-2.352-2.492s-2.156-.868-3.444-.868-2.436.289-3.444.868-1.802,1.409-2.38,2.492c-.56,1.083-.84,2.343-.84,3.78Zm33.799-5.656v15.428h-3.192v-1.82c-.504.635-1.167,1.139-1.988,1.512-.803.355-1.662.532-2.576.532-1.214,0-2.306-.252-3.276-.756-.952-.504-1.708-1.251-2.268-2.24-.542-.989-.812-2.184-.812-3.584v-9.072h3.164v8.596c0,1.381.345,2.445,1.036,3.192.69.728,1.633,1.092,2.828,1.092c1.194,0,2.137-.364,2.828-1.092.709-.747,1.064-1.811,1.064-3.192v-8.596h3.192Zm18.351,7.336c0,.579-.037,1.101-.112,1.568h-11.788c.094,1.232.551,2.221,1.372,2.968.822.747,1.83,1.12,3.024,1.12c1.718,0,2.931-.719,3.64-2.156h3.444c-.466,1.419-1.316,2.585-2.548,3.5-1.213.896-2.725,1.344-4.536,1.344-1.474,0-2.8-.327-3.976-.98-1.157-.672-2.072-1.605-2.744-2.8-.653-1.213-.98-2.613-.98-4.2s.318-2.977.952-4.172c.654-1.213,1.559-2.147,2.716-2.8c1.176-.653,2.52-.98,4.032-.98c1.456,0,2.754.317,3.892.952c1.139.635,2.026,1.531,2.66,2.688.635,1.139.952,2.455.952,3.948ZM889.4,807.9c-.018-1.176-.438-2.119-1.26-2.828-.821-.709-1.838-1.064-3.052-1.064-1.101,0-2.044.355-2.828,1.064-.784.691-1.25,1.633-1.4,2.828h8.54Zm9.665-4.088c.467-.784,1.083-1.391,1.848-1.82.784-.448,1.708-.672,2.772-.672v3.304h-.812c-1.25,0-2.202.317-2.856.952-.634.635-.952,1.736-.952,3.304v8.12h-3.192v-15.428h3.192v2.24Zm21.443-2.24l-9.464,22.68h-3.304l3.136-7.504-6.076-15.176h3.556l4.34,11.76l4.508-11.76h3.304Z" fill="#b5b5b5"/><g clip-path="url(#e9psjZIAmTH59)"><g><path d="M685.924,1088.21l-25.886-44.84c-1.384-2.39-1.384-5.35,0-7.74l25.886-44.836c1.381-2.393,3.932-3.867,6.693-3.871h51.797c2.752.013,5.29,1.487,6.666,3.871l25.882,44.836c1.384,2.39,1.384,5.35,0,7.74l-25.886,44.84c-1.381,2.39-3.932,3.87-6.694,3.87h-51.783c-2.758-.01-5.299-1.48-6.681-3.87h.006Z" fill="#cfcfcf"/></g><clipPath id="e9psjZIAmTH59"><rect width="119" height="119" rx="0" ry="0" transform="translate(659 980)" fill="#fff"/></clipPath></g></g><clipPath id="e9psjZIAmTH61"><rect width="1000" height="1000" rx="0" ry="0" fill="#fff"/></clipPath></g><g id="e9psjZIAmTH63_to" transform="translate(514.778651,592.137009)"><g transform="translate(-499.775512,-499.997009)"><path d="M717.511,436.334h-435.511v126.298h.113c0,22.195,30.061,40.056,90.182,75.779c60.122,35.722,90.182,53.583,127.537,53.583s67.415-17.861,127.537-53.583c60.121-35.723,90.182-53.584,90.182-75.779c0-.469-.013-.935-.04-1.4v-124.898Z" fill="url(#e9psjZIAmTH64-fill)"/><path d="M372.206,361.577C432.343,325.859,462.411,308,499.775,308c37.365,0,67.433,17.859,127.57,53.577s90.206,53.577,90.206,75.769-30.069,40.051-90.206,75.769-90.205,53.577-127.57,53.577c-37.364,0-67.432-17.859-127.569-53.577s-90.206-53.577-90.206-75.769s30.069-40.051,90.206-75.769Z" transform="translate(3.756843 0)" fill="url(#e9psjZIAmTH65-fill)"/><path d="M434.628,362.474c2.89-1.722,5.929-2.919,9.118-3.592c3.222-.654,6.311-.792,9.267-.416c2.989.396,5.597,1.257,7.822,2.583c1.927,1.148,3.206,2.366,3.837,3.652.631,1.287.681,2.544.149,3.771l3.886-2.316l9.766,5.82-27.951,16.658-9.765-5.82l3.886-2.316c-2.06.317-4.185.277-6.378-.119-2.159-.376-4.185-1.128-6.078-2.256-2.225-1.327-3.67-2.881-4.335-4.662-.631-1.762-.398-3.603.698-5.523c1.162-1.92,3.189-3.741,6.078-5.464Zm20.129,11.996c1.794-1.069,2.707-2.207,2.74-3.414.067-1.188-.614-2.207-2.043-3.059-1.461-.871-3.188-1.286-5.181-1.247-1.96.02-3.853.574-5.68,1.663-1.794,1.069-2.74,2.207-2.84,3.415-.066,1.187.631,2.217,2.093,3.088c1.428.851,3.138,1.257,5.131,1.217c2.027-.02,3.953-.574,5.78-1.663Zm13.735,8.186c2.89-1.722,6.012-2.87,9.367-3.444s6.677-.574,9.965,0c3.321.594,6.361,1.712,9.117,3.355c3.554,2.118,5.564,4.484,6.029,7.097.498,2.593-.648,5.137-3.438,7.631l-10.363-6.176c1.229-1.445.98-2.683-.747-3.712-1.229-.732-2.724-1.009-4.484-.831-1.694.178-3.521.851-5.481,2.019s-3.106,2.266-3.438,3.296c-.299,1.049.166,1.94,1.395,2.672c1.761,1.049,3.837,1.198,6.228.446l10.363,6.176c-4.151,1.643-8.42,2.326-12.804,2.048-4.385-.277-8.354-1.474-11.908-3.592-2.757-1.643-4.633-3.455-5.63-5.434-.963-1.96-.963-3.939,0-5.939.963-1.999,2.907-3.87,5.829-5.612Zm64.443,21.481c3.188,1.9,4.633,4.048,4.334,6.443-.232,2.395-2.175,4.682-5.829,6.859l-16.292,9.71-9.765-5.82l14.996-8.938c1.595-.95,2.425-1.94,2.491-2.969.1-1.049-.548-1.989-1.943-2.821-1.461-.871-3.072-1.277-4.832-1.217-1.728.039-3.388.534-4.983,1.484l-14.997,8.938-9.765-5.82l36.869-21.972l9.766,5.819-12.905,7.691c2.126-.238,4.302-.149,6.527.267c2.292.416,4.401,1.198,6.328,2.346ZM555.98,415.08c-1.727-1.029-2.657-2.138-2.79-3.326-.066-1.187.615-2.207,2.043-3.058c1.461-.871,3.189-1.287,5.181-1.247c2.027.059,3.903.604,5.63,1.633c1.694,1.01,2.575,2.108,2.641,3.296.1,1.207-.581,2.247-2.043,3.118-1.428.851-3.155,1.247-5.181,1.187-1.96-.059-3.787-.594-5.481-1.603Zm2.242,4.424l-27.95,16.658-9.766-5.82l27.951-16.658l9.765,5.82Zm24.245,3.819l-36.869,21.973-9.765-5.82l36.869-21.973l9.765,5.82Zm4.166,10.025c-1.727-1.029-2.657-2.138-2.79-3.326-.066-1.187.614-2.207,2.043-3.058c1.461-.871,3.188-1.287,5.181-1.247c2.026.059,3.903.604,5.63,1.633c1.694,1.01,2.575,2.108,2.641,3.296.1,1.207-.581,2.247-2.043,3.118-1.428.851-3.155,1.247-5.181,1.187-1.96-.059-3.787-.594-5.481-1.603Zm2.242,4.424L560.924,454.43l-9.765-5.82l27.951-16.658l9.765,5.82Zm-9.734,27.93c-2.791-1.663-4.717-3.504-5.78-5.523-1.03-1.999-1.096-4.019-.199-6.057.897-2.039,2.806-3.93,5.729-5.672c2.89-1.722,6.046-2.85,9.467-3.385c3.454-.514,6.859-.465,10.214.149c3.388.633,6.477,1.781,9.267,3.444s4.7,3.494,5.729,5.493c1.063,2.019,1.146,4.048.249,6.087-.863,2.059-2.74,3.949-5.63,5.672-2.889,1.722-6.078,2.85-9.566,3.385-3.421.534-6.825.485-10.213-.149-3.388-.633-6.477-1.781-9.267-3.444Zm8.469-5.048c1.362.812,2.99,1.188,4.883,1.128c1.96-.059,3.886-.653,5.78-1.781c1.893-1.129,2.873-2.267,2.939-3.415.1-1.128-.515-2.088-1.843-2.88-1.329-.792-2.94-1.158-4.833-1.099-1.893.06-3.787.653-5.68,1.782-1.926,1.148-2.956,2.276-3.089,3.385-.133,1.108.482,2.068,1.843,2.88Zm14.885,19.025c-1.727-1.029-2.658-2.138-2.79-3.325-.067-1.188.631-2.217,2.092-3.088c1.462-.871,3.189-1.287,5.182-1.247c2.026.059,3.903.603,5.63,1.633c1.694,1.009,2.574,2.108,2.64,3.296.1,1.207-.581,2.246-2.042,3.117-1.429.852-3.156,1.247-5.182,1.188-1.993-.04-3.836-.564-5.53-1.574ZM375.933,396.594l-4.81-2.867-17.017,10.142-2.925-1.742l17.018-10.142-3.418-2.037l1.41-.84l4.386,1.459l1.286-.766c1.621-.966,3.177-1.606,4.669-1.921c1.503-.322,2.953-.354,4.351-.095s2.754.781,4.069,1.564c.74.441,1.351.882,1.833,1.323.493.448.892.861,1.198,1.239l-3.066.924c-.27-.315-.605-.654-1.004-1.018-.376-.364-.822-.7-1.339-1.008-1.115-.665-2.308-.942-3.576-.83-1.245.112-2.637.627-4.175,1.544l-1.409.84l4.809,2.866-2.29,1.365Zm12.878,16.409c-1.586.945-3.207,1.666-4.863,2.163s-3.3.77-4.932.819c-1.633.049-3.23-.119-4.792-.504-1.539-.385-3.001-.99-4.387-1.816-1.291-.77-2.254-1.61-2.889-2.52-.61-.91-.881-1.855-.81-2.835.082-.972.528-1.959,1.339-2.96.822-.994,2.026-1.964,3.611-2.908c2.114-1.26,4.269-2.118,6.466-2.573c2.207-.462,4.363-.528,6.465-.199c2.126.329,4.11,1.043,5.954,2.142c1.762,1.049,2.907,2.201,3.435,3.454.541,1.26.429,2.551-.334,3.874-.74,1.323-2.161,2.611-4.263,3.863Zm-14.693-8.756c-1.55.924-2.689,1.848-3.417,2.772s-.975,1.827-.74,2.709s1.027,1.725,2.378,2.53c1.339.798,2.748,1.267,4.228,1.407c1.492.147,3.012.003,4.563-.431c1.55-.434,3.1-1.113,4.65-2.036c1.539-.917,2.661-1.831,3.365-2.741.717-.917.952-1.812.705-2.687s-1.051-1.719-2.414-2.531c-2.008-1.196-4.145-1.679-6.412-1.448-2.255.238-4.557,1.056-6.906,2.456Zm38.493,11.056c.387.231.769.486,1.145.766.387.273.71.529.969.766l-3.083,1.397c-.235-.238-.523-.487-.864-.746-.34-.259-.681-.49-1.021-.693-.775-.461-1.668-.804-2.678-1.028-.987-.224-2.032-.315-3.136-.273-1.092.035-2.196.21-3.312.525-1.104.308-2.155.759-3.153,1.354l-10.359,6.173-2.942-1.753l19.308-11.507l2.431,1.449-3.241,2.31.123.073c1.116-.189,2.249-.29,3.4-.304c1.163-.021,2.29.084,3.382.315c1.104.238,2.114.63,3.031,1.176Zm21.897,5.785l7.293,4.346c3.218,1.918,5.156,3.647,5.814,5.187.657,1.539-.171,2.999-2.484,4.378-.999.594-2.091,1.014-3.277,1.259-1.163.245-2.366.305-3.611.179s-2.502-.448-3.77-.966l-.176.105c.951.777,1.626,1.564,2.025,2.362.4.798.423,1.596.071,2.394s-1.18,1.585-2.484,2.362c-1.586.945-3.294,1.523-5.126,1.733-1.821.216-3.682.094-5.585-.368-1.891-.469-3.752-1.249-5.584-2.341l-8.862-5.281l25.756-15.349Zm-8.051,8.367l4.933,2.94c2.243,1.337,4.163,2.04,5.76,2.11c1.609.077,3.124-.308,4.546-1.155c1.468-.875,2.008-1.813,1.62-2.813-.376-.994-1.685-2.16-3.928-3.497l-4.44-2.645-8.491,5.06Zm-2.519,1.501l-9.636,5.743l5.355,3.192c2.29,1.365,4.357,2.065,6.201,2.1c1.856.028,3.547-.413,5.074-1.323.975-.581,1.591-1.207,1.85-1.879.27-.665.105-1.393-.494-2.184-.575-.791-1.662-1.662-3.259-2.614l-5.091-3.035Zm29.931,9.355l-19.308,11.507-2.925-1.743l19.308-11.507l2.925,1.743Zm5.795-5.155c.482.287.734.626.758,1.018.047.392-.258.784-.916,1.176-.646.385-1.304.567-1.973.546-.658-.014-1.227-.164-1.709-.451-.505-.301-.769-.648-.793-1.04-.011-.385.306-.77.952-1.154.657-.392,1.303-.581,1.937-.567.658.014,1.239.171,1.744.472Zm-22.179,28.735c-2.537-1.511-4.016-2.96-4.439-4.346-.435-1.379.199-2.576,1.902-3.591c1.21-.721,2.625-1.109,4.246-1.165c1.632-.049,3.271.248,4.915.892-.27-.441-.352-.91-.247-1.407.118-.489.482-.916,1.093-1.28.704-.42,1.515-.672,2.431-.756.939-.084,2.061-.032,3.364.157-.599-.847-.728-1.75-.387-2.709.364-.958,1.198-1.826,2.501-2.603c1.386-.826,2.854-1.358,4.405-1.596c1.562-.245,3.147-.196,4.756.147s3.189.976,4.739,1.9c.34.203.663.417.969.641.329.224.622.448.881.672.27.217.487.416.651.598l6.624,3.948-1.885,1.123-3.999-1.858c-.105.483-.364.987-.775,1.511-.411.525-1.01,1.022-1.797,1.491-1.926,1.148-4.11,1.673-6.553,1.575-2.431-.105-4.786-.836-7.064-2.194-.541-.322-1.046-.679-1.515-1.071-.893-.154-1.686-.206-2.379-.157-.681.055-1.274.234-1.779.535-.376.224-.564.469-.564.735.012.273.182.57.511.892.341.315.817.655,1.427,1.019l3.4,2.026c2.103,1.253,3.271,2.474,3.506,3.664.247,1.197-.476,2.299-2.167,3.307-2.137,1.274-4.645,1.733-7.522,1.376-2.878-.357-5.96-1.516-9.249-3.476Zm2.378-1.312c1.598.952,3.083,1.641,4.457,2.068c1.374.441,2.625.634,3.753.578c1.127-.042,2.108-.312,2.942-.809.775-.462,1.186-.917,1.233-1.364.035-.441-.223-.903-.775-1.386-.541-.49-1.304-1.029-2.29-1.617l-3.348-1.995c-.869-.518-1.761-.889-2.677-1.113s-1.815-.283-2.696-.178c-.869.112-1.697.402-2.484.871-1.045.623-1.397,1.358-1.057,2.205.329.854,1.31,1.767,2.942,2.74Zm16.19-8.746c1.398.833,2.801,1.25,4.21,1.25c1.41,0,2.79-.403,4.14-1.208c1.445-.86,2.167-1.718,2.167-2.572.012-.861-.681-1.708-2.079-2.54-1.338-.798-2.748-1.19-4.228-1.176-1.456.014-2.9.448-4.333,1.302-1.316.783-1.962,1.602-1.938,2.456.023.854.71,1.684,2.061,2.488Zm39.99,19.234c-2.114,1.26-4.316,2.23-6.607,2.909-2.29.679-4.597,1.032-6.923,1.06-2.314.035-4.586-.29-6.817-.976l-.3,7.401-4.281-2.551.828-6.436c-.153-.091-.317-.182-.493-.273-.165-.084-.323-.171-.476-.262-1.996-1.19-3.423-2.418-4.281-3.685-.845-1.26-1.174-2.534-.986-3.822.2-1.281.869-2.555,2.008-3.821c1.151-1.26,2.719-2.482,4.704-3.665c2.631-1.567,5.373-2.684,8.227-3.349s5.713-.801,8.579-.409c2.877.399,5.649,1.393,8.315,2.982c2.549,1.518,4.146,3.121,4.792,4.808.657,1.694.44,3.398-.652,5.113-1.069,1.715-2.948,3.374-5.637,4.976Zm-20.506-12.22c-2.184,1.302-3.764,2.614-4.739,3.937s-1.257,2.625-.845,3.905c.422,1.288,1.626,2.524,3.611,3.706c1.996,1.19,4.063,1.904,6.201,2.142c2.149.245,4.328.074,6.536-.514s4.404-1.533,6.588-2.835c3.324-1.981,5.221-3.944,5.69-5.89.494-1.946-.734-3.797-3.681-5.554-1.997-1.19-4.07-1.914-6.219-2.173s-4.334-.105-6.553.462c-2.197.567-4.393,1.505-6.589,2.814Zm48.146,21.071l-19.308,11.507-2.396-1.428l2.291-1.869-.159-.094c-1.069.161-2.149.189-3.241.084-1.093-.105-2.15-.329-3.171-.672-1.022-.329-1.979-.76-2.872-1.292-1.527-.91-2.56-1.82-3.1-2.729-.541-.91-.558-1.831-.053-2.762.517-.924,1.585-1.868,3.206-2.834l12.649-7.538l2.959,1.763-12.437,7.413c-1.609.958-2.449,1.893-2.519,2.803-.059.903.657,1.799,2.149,2.687c1.433.854,2.842,1.372,4.228,1.554c1.398.189,2.807.084,4.228-.315c1.433-.406,2.913-1.064,4.439-1.973l10.165-6.058l2.942,1.753Zm13.97,7.906c1.644.98,2.69,2.036,3.136,3.17s.323,2.279-.37,3.433c-.681,1.148-1.897,2.244-3.647,3.287l-1.814,1.081-13.336-7.948c-2.231,1.372-3.394,2.737-3.488,4.095s.851,2.628,2.836,3.811c1.222.728,2.414,1.305,3.576,1.732c1.163.427,2.467.812,3.911,1.155l-2.572,1.533c-1.409-.322-2.695-.71-3.858-1.165-1.151-.448-2.378-1.061-3.682-1.838-1.855-1.106-3.1-2.295-3.734-3.569-.611-1.274-.564-2.576.14-3.906.705-1.33,2.12-2.628,4.246-3.895c2.079-1.239,4.222-2.103,6.43-2.593c2.232-.49,4.393-.602,6.483-.336c2.102.273,4.017.924,5.743,1.953Zm-2.431,1.406c-1.562-.93-3.318-1.368-5.267-1.312-1.95.056-3.929.578-5.937,1.564l10.217,6.09c1.14-.693,1.968-1.404,2.484-2.131.541-.728.699-1.446.476-2.153-.211-.714-.869-1.4-1.973-2.058Zm24.029,11.465c.388.231.769.487,1.145.767.388.273.711.528.969.766l-3.083,1.396c-.235-.238-.523-.486-.863-.745-.341-.259-.681-.49-1.022-.693-.775-.462-1.668-.805-2.678-1.029-.986-.224-2.031-.315-3.135-.273-1.093.035-2.197.21-3.312.525-1.104.308-2.155.76-3.154,1.355l-10.358,6.173-2.942-1.753l19.308-11.507l2.431,1.449-3.242,2.309.124.074c1.115-.189,2.249-.291,3.4-.305c1.162-.021,2.29.084,3.382.315c1.104.238,2.114.63,3.03,1.176Zm2.59,1.964l3.135,1.868-6.941,9.218c-.411.539-.816,1.054-1.215,1.544-.388.483-.775.938-1.163,1.365-.387.426-.793.822-1.215,1.186l.123.073c.752-.252,1.756-.57,3.012-.955c1.269-.392,2.578-.78,3.929-1.165l15.221-4.263l3.153,1.879-30.547,8.189c-1.633.441-3.189.746-4.669.914-1.468.175-2.859.15-4.175-.074-1.327-.217-2.589-.682-3.787-1.396-.552-.329-1.004-.64-1.357-.934-.364-.287-.657-.546-.881-.777l2.343-1.397c.2.189.458.406.776.651.328.252.692.497,1.092.735.728.434,1.497.725,2.308.872.81.161,1.673.199,2.589.115s1.879-.259,2.889-.525l3.77-.987l11.61-16.136Z" fill="#fff"/></g></g></svg>